<mxfile host="Electron" agent="Mozilla/5.0 (Macintosh; Intel Mac OS X 10_15_7) AppleWebKit/537.36 (KHTML, like Gecko) draw.io/26.0.16 Chrome/132.0.6834.196 Electron/34.2.0 Safari/537.36" version="26.0.16">
  <diagram name="Page-1" id="197159a0-c6a4-9194-75a8-e4174976684c">
    <mxGraphModel dx="1505" dy="1752" grid="1" gridSize="10" guides="1" tooltips="1" connect="1" arrows="1" fold="1" page="1" pageScale="1.5" pageWidth="1169" pageHeight="826" background="none" math="0" shadow="0">
      <root>
        <mxCell id="0" style=";html=1;" />
        <mxCell id="1" style=";html=1;" parent="0" />
        <mxCell id="-_vZho8b1GlPkuXcv8ZX-28" value="" style="rounded=0;whiteSpace=wrap;html=1;strokeColor=none;" vertex="1" parent="1">
          <mxGeometry x="282" y="10" width="1318" height="1230" as="geometry" />
        </mxCell>
        <mxCell id="nfG761EomCiYScNcZpE6-129" value="Private DB Subnet&lt;span style=&quot;background-color: transparent; color: light-dark(rgb(20, 126, 186), rgb(69, 160, 212));&quot;&gt;&amp;nbsp;Group (10.1.24.0/24, 10.1.32.0/24)&lt;/span&gt;" style="points=[[0,0],[0.25,0],[0.5,0],[0.75,0],[1,0],[1,0.25],[1,0.5],[1,0.75],[1,1],[0.75,1],[0.5,1],[0.25,1],[0,1],[0,0.75],[0,0.5],[0,0.25]];outlineConnect=0;gradientColor=none;html=1;whiteSpace=wrap;fontSize=12;fontStyle=0;container=1;pointerEvents=0;collapsible=0;recursiveResize=0;shape=mxgraph.aws4.group;grIcon=mxgraph.aws4.group_security_group;grStroke=0;strokeColor=#00A4A6;fillColor=#E6F6F7;verticalAlign=top;align=left;spacingLeft=30;fontColor=#147EBA;dashed=0;" parent="1" vertex="1">
          <mxGeometry x="920" y="668" width="220" height="507" as="geometry" />
        </mxCell>
        <mxCell id="nfG761EomCiYScNcZpE6-104" value="Public Subnet (10.1.1.0/24, 10.1.8.0/24)" style="points=[[0,0],[0.25,0],[0.5,0],[0.75,0],[1,0],[1,0.25],[1,0.5],[1,0.75],[1,1],[0.75,1],[0.5,1],[0.25,1],[0,1],[0,0.75],[0,0.5],[0,0.25]];outlineConnect=0;gradientColor=none;html=1;whiteSpace=wrap;fontSize=12;fontStyle=0;container=1;pointerEvents=0;collapsible=0;recursiveResize=0;shape=mxgraph.aws4.group;grIcon=mxgraph.aws4.group_security_group;grStroke=0;strokeColor=#7AA116;fillColor=#F2F6E8;verticalAlign=top;align=left;spacingLeft=30;fontColor=#248814;dashed=0;" parent="1" vertex="1">
          <mxGeometry x="375" y="517" width="765" height="131" as="geometry" />
        </mxCell>
        <mxCell id="nfG761EomCiYScNcZpE6-90" value="NAT Gateway" style="sketch=0;outlineConnect=0;fontColor=#232F3E;gradientColor=none;fillColor=#8C4FFF;strokeColor=none;dashed=0;verticalLabelPosition=bottom;verticalAlign=top;align=center;html=1;fontSize=12;fontStyle=0;aspect=fixed;pointerEvents=1;shape=mxgraph.aws4.nat_gateway;" parent="nfG761EomCiYScNcZpE6-104" vertex="1">
          <mxGeometry x="405" y="36.5" width="58" height="58" as="geometry" />
        </mxCell>
        <mxCell id="nfG761EomCiYScNcZpE6-113" value="Application&amp;nbsp;&lt;span style=&quot;background-color: transparent; color: light-dark(rgb(35, 47, 62), rgb(189, 199, 212));&quot;&gt;LB&lt;/span&gt;" style="sketch=0;outlineConnect=0;fontColor=#232F3E;gradientColor=none;fillColor=#8C4FFF;strokeColor=none;dashed=0;verticalLabelPosition=bottom;verticalAlign=top;align=center;html=1;fontSize=12;fontStyle=0;aspect=fixed;pointerEvents=1;shape=mxgraph.aws4.application_load_balancer;" parent="nfG761EomCiYScNcZpE6-104" vertex="1">
          <mxGeometry x="291.11" y="34.5" width="60" height="60" as="geometry" />
        </mxCell>
        <mxCell id="1257a543d1cacc4b-52" value="Non blocking Study Project Test Infrastructure" style="text;strokeColor=none;fillColor=none;html=1;fontSize=24;fontStyle=1;verticalAlign=middle;align=center;" parent="1" vertex="1">
          <mxGeometry x="282" y="20" width="1282.5" height="40" as="geometry" />
        </mxCell>
        <mxCell id="nfG761EomCiYScNcZpE6-68" value="AWS Cloud" style="points=[[0,0],[0.25,0],[0.5,0],[0.75,0],[1,0],[1,0.25],[1,0.5],[1,0.75],[1,1],[0.75,1],[0.5,1],[0.25,1],[0,1],[0,0.75],[0,0.5],[0,0.25]];outlineConnect=0;gradientColor=none;html=1;whiteSpace=wrap;fontSize=12;fontStyle=0;container=0;pointerEvents=0;collapsible=0;recursiveResize=0;shape=mxgraph.aws4.group;grIcon=mxgraph.aws4.group_aws_cloud;strokeColor=#232F3E;fillColor=none;verticalAlign=top;align=left;spacingLeft=30;fontColor=#232F3E;dashed=0;" parent="1" vertex="1">
          <mxGeometry x="315" y="80" width="995" height="1140" as="geometry" />
        </mxCell>
        <mxCell id="nfG761EomCiYScNcZpE6-69" value="VPC main (10.0.0.0/16)" style="points=[[0,0],[0.25,0],[0.5,0],[0.75,0],[1,0],[1,0.25],[1,0.5],[1,0.75],[1,1],[0.75,1],[0.5,1],[0.25,1],[0,1],[0,0.75],[0,0.5],[0,0.25]];outlineConnect=0;gradientColor=none;html=1;whiteSpace=wrap;fontSize=12;fontStyle=0;container=0;pointerEvents=0;collapsible=0;recursiveResize=0;shape=mxgraph.aws4.group;grIcon=mxgraph.aws4.group_vpc2;strokeColor=#8C4FFF;fillColor=none;verticalAlign=top;align=left;spacingLeft=30;fontColor=#AAB7B8;dashed=0;" parent="1" vertex="1">
          <mxGeometry x="345" y="117" width="815" height="303" as="geometry" />
        </mxCell>
        <mxCell id="nfG761EomCiYScNcZpE6-70" value="Private Subnet (10.1.16.0/24)" style="points=[[0,0],[0.25,0],[0.5,0],[0.75,0],[1,0],[1,0.25],[1,0.5],[1,0.75],[1,1],[0.75,1],[0.5,1],[0.25,1],[0,1],[0,0.75],[0,0.5],[0,0.25]];outlineConnect=0;gradientColor=none;html=1;whiteSpace=wrap;fontSize=12;fontStyle=0;container=0;pointerEvents=0;collapsible=0;recursiveResize=0;shape=mxgraph.aws4.group;grIcon=mxgraph.aws4.group_security_group;grStroke=0;strokeColor=#00A4A6;fillColor=#E6F6F7;verticalAlign=top;align=left;spacingLeft=30;fontColor=#147EBA;dashed=0;movable=1;resizable=1;rotatable=1;deletable=1;editable=1;locked=0;connectable=1;" parent="1" vertex="1">
          <mxGeometry x="375" y="668" width="525" height="508" as="geometry" />
        </mxCell>
        <mxCell id="nfG761EomCiYScNcZpE6-89" value="Public Subnet (10.0.1.0/24, 10.0.16.0/24)" style="points=[[0,0],[0.25,0],[0.5,0],[0.75,0],[1,0],[1,0.25],[1,0.5],[1,0.75],[1,1],[0.75,1],[0.5,1],[0.25,1],[0,1],[0,0.75],[0,0.5],[0,0.25]];outlineConnect=0;gradientColor=none;html=1;whiteSpace=wrap;fontSize=12;fontStyle=0;container=1;pointerEvents=0;collapsible=0;recursiveResize=0;shape=mxgraph.aws4.group;grIcon=mxgraph.aws4.group_security_group;grStroke=0;strokeColor=#7AA116;fillColor=#F2F6E8;verticalAlign=top;align=left;spacingLeft=30;fontColor=#248814;dashed=0;" parent="1" vertex="1">
          <mxGeometry x="375" y="153" width="765" height="257" as="geometry" />
        </mxCell>
        <mxCell id="nfG761EomCiYScNcZpE6-92" value="ngrinder ECS group" style="fillColor=none;strokeColor=#5A6C86;dashed=1;verticalAlign=top;fontStyle=0;fontColor=#5A6C86;whiteSpace=wrap;html=1;" parent="nfG761EomCiYScNcZpE6-89" vertex="1">
          <mxGeometry x="155" y="40" width="595" height="190" as="geometry" />
        </mxCell>
        <mxCell id="nfG761EomCiYScNcZpE6-93" value="ECS" style="sketch=0;points=[[0,0,0],[0.25,0,0],[0.5,0,0],[0.75,0,0],[1,0,0],[0,1,0],[0.25,1,0],[0.5,1,0],[0.75,1,0],[1,1,0],[0,0.25,0],[0,0.5,0],[0,0.75,0],[1,0.25,0],[1,0.5,0],[1,0.75,0]];outlineConnect=0;fontColor=#232F3E;fillColor=#ED7100;strokeColor=#ffffff;dashed=0;verticalLabelPosition=bottom;verticalAlign=top;align=center;html=1;fontSize=12;fontStyle=0;aspect=fixed;shape=mxgraph.aws4.resourceIcon;resIcon=mxgraph.aws4.ecs;" parent="nfG761EomCiYScNcZpE6-89" vertex="1">
          <mxGeometry x="155" y="40" width="50" height="50" as="geometry" />
        </mxCell>
        <mxCell id="nfG761EomCiYScNcZpE6-94" value="Auto Scaling group" style="points=[[0,0],[0.25,0],[0.5,0],[0.75,0],[1,0],[1,0.25],[1,0.5],[1,0.75],[1,1],[0.75,1],[0.5,1],[0.25,1],[0,1],[0,0.75],[0,0.5],[0,0.25]];outlineConnect=0;gradientColor=none;html=1;whiteSpace=wrap;fontSize=12;fontStyle=0;container=1;pointerEvents=0;collapsible=0;recursiveResize=0;shape=mxgraph.aws4.groupCenter;grIcon=mxgraph.aws4.group_auto_scaling_group;grStroke=1;strokeColor=#D86613;fillColor=none;verticalAlign=top;align=center;fontColor=#D86613;dashed=1;spacingTop=25;" parent="nfG761EomCiYScNcZpE6-89" vertex="1">
          <mxGeometry x="405" y="76" width="330" height="144" as="geometry" />
        </mxCell>
        <mxCell id="-_vZho8b1GlPkuXcv8ZX-23" style="edgeStyle=orthogonalEdgeStyle;rounded=0;orthogonalLoop=1;jettySize=auto;html=1;exitX=1;exitY=0.5;exitDx=0;exitDy=0;exitPerimeter=0;" edge="1" parent="nfG761EomCiYScNcZpE6-89" source="nfG761EomCiYScNcZpE6-95" target="-_vZho8b1GlPkuXcv8ZX-22">
          <mxGeometry relative="1" as="geometry" />
        </mxCell>
        <mxCell id="nfG761EomCiYScNcZpE6-95" value="Ngrinder Controller" style="sketch=0;points=[[0,0,0],[0.25,0,0],[0.5,0,0],[0.75,0,0],[1,0,0],[0,1,0],[0.25,1,0],[0.5,1,0],[0.75,1,0],[1,1,0],[0,0.25,0],[0,0.5,0],[0,0.75,0],[1,0.25,0],[1,0.5,0],[1,0.75,0]];outlineConnect=0;fontColor=#232F3E;fillColor=#ED7100;strokeColor=#ffffff;dashed=0;verticalLabelPosition=bottom;verticalAlign=top;align=center;html=1;fontSize=12;fontStyle=0;aspect=fixed;shape=mxgraph.aws4.resourceIcon;resIcon=mxgraph.aws4.ec2;" parent="nfG761EomCiYScNcZpE6-89" vertex="1">
          <mxGeometry x="205" y="134" width="52" height="52" as="geometry" />
        </mxCell>
        <mxCell id="nfG761EomCiYScNcZpE6-96" value="Ngrinder Agent" style="sketch=0;points=[[0,0,0],[0.25,0,0],[0.5,0,0],[0.75,0,0],[1,0,0],[0,1,0],[0.25,1,0],[0.5,1,0],[0.75,1,0],[1,1,0],[0,0.25,0],[0,0.5,0],[0,0.75,0],[1,0.25,0],[1,0.5,0],[1,0.75,0]];outlineConnect=0;fontColor=#232F3E;fillColor=#ED7100;strokeColor=#ffffff;dashed=0;verticalLabelPosition=bottom;verticalAlign=top;align=center;html=1;fontSize=12;fontStyle=0;aspect=fixed;shape=mxgraph.aws4.resourceIcon;resIcon=mxgraph.aws4.ec2;" parent="nfG761EomCiYScNcZpE6-89" vertex="1">
          <mxGeometry x="435" y="134" width="52" height="52" as="geometry" />
        </mxCell>
        <mxCell id="nfG761EomCiYScNcZpE6-97" value="Ngrinder Agent" style="sketch=0;points=[[0,0,0],[0.25,0,0],[0.5,0,0],[0.75,0,0],[1,0,0],[0,1,0],[0.25,1,0],[0.5,1,0],[0.75,1,0],[1,1,0],[0,0.25,0],[0,0.5,0],[0,0.75,0],[1,0.25,0],[1,0.5,0],[1,0.75,0]];outlineConnect=0;fontColor=#232F3E;fillColor=#ED7100;strokeColor=#ffffff;dashed=0;verticalLabelPosition=bottom;verticalAlign=top;align=center;html=1;fontSize=12;fontStyle=0;aspect=fixed;shape=mxgraph.aws4.resourceIcon;resIcon=mxgraph.aws4.ec2;" parent="nfG761EomCiYScNcZpE6-89" vertex="1">
          <mxGeometry x="545" y="134" width="52" height="52" as="geometry" />
        </mxCell>
        <mxCell id="nfG761EomCiYScNcZpE6-98" value="Ngrinder Agent" style="sketch=0;points=[[0,0,0],[0.25,0,0],[0.5,0,0],[0.75,0,0],[1,0,0],[0,1,0],[0.25,1,0],[0.5,1,0],[0.75,1,0],[1,1,0],[0,0.25,0],[0,0.5,0],[0,0.75,0],[1,0.25,0],[1,0.5,0],[1,0.75,0]];outlineConnect=0;fontColor=#232F3E;fillColor=#ED7100;strokeColor=#ffffff;dashed=0;verticalLabelPosition=bottom;verticalAlign=top;align=center;html=1;fontSize=12;fontStyle=0;aspect=fixed;shape=mxgraph.aws4.resourceIcon;resIcon=mxgraph.aws4.ec2;" parent="nfG761EomCiYScNcZpE6-89" vertex="1">
          <mxGeometry x="655" y="134" width="52" height="52" as="geometry" />
        </mxCell>
        <mxCell id="-_vZho8b1GlPkuXcv8ZX-3" value="Application&amp;nbsp;&lt;span style=&quot;background-color: transparent; color: light-dark(rgb(35, 47, 62), rgb(189, 199, 212));&quot;&gt;LB&lt;/span&gt;" style="sketch=0;outlineConnect=0;fontColor=#232F3E;gradientColor=none;fillColor=#8C4FFF;strokeColor=none;dashed=0;verticalLabelPosition=bottom;verticalAlign=top;align=center;html=1;fontSize=12;fontStyle=0;aspect=fixed;pointerEvents=1;shape=mxgraph.aws4.application_load_balancer;" vertex="1" parent="nfG761EomCiYScNcZpE6-89">
          <mxGeometry x="45" y="130" width="60" height="60" as="geometry" />
        </mxCell>
        <mxCell id="-_vZho8b1GlPkuXcv8ZX-4" style="edgeStyle=orthogonalEdgeStyle;rounded=0;orthogonalLoop=1;jettySize=auto;html=1;entryX=0;entryY=0.5;entryDx=0;entryDy=0;entryPerimeter=0;" edge="1" parent="nfG761EomCiYScNcZpE6-89" source="-_vZho8b1GlPkuXcv8ZX-3" target="nfG761EomCiYScNcZpE6-95">
          <mxGeometry relative="1" as="geometry" />
        </mxCell>
        <mxCell id="-_vZho8b1GlPkuXcv8ZX-25" style="edgeStyle=orthogonalEdgeStyle;rounded=0;orthogonalLoop=1;jettySize=auto;html=1;" edge="1" parent="nfG761EomCiYScNcZpE6-89" source="-_vZho8b1GlPkuXcv8ZX-22" target="nfG761EomCiYScNcZpE6-94">
          <mxGeometry relative="1" as="geometry">
            <Array as="points">
              <mxPoint x="395" y="160" />
              <mxPoint x="395" y="160" />
            </Array>
          </mxGeometry>
        </mxCell>
        <mxCell id="-_vZho8b1GlPkuXcv8ZX-22" value="Service Discovery&lt;div&gt;Http Namespace&lt;/div&gt;" style="sketch=0;outlineConnect=0;fontColor=#232F3E;gradientColor=none;fillColor=#8C4FFF;strokeColor=none;dashed=0;verticalLabelPosition=bottom;verticalAlign=top;align=center;html=1;fontSize=12;fontStyle=0;aspect=fixed;pointerEvents=1;shape=mxgraph.aws4.namespace;" vertex="1" parent="nfG761EomCiYScNcZpE6-89">
          <mxGeometry x="315" y="135.5" width="49" height="49" as="geometry" />
        </mxCell>
        <mxCell id="bWXr1bDZ2tMtOz2vUo79-9" style="edgeStyle=orthogonalEdgeStyle;rounded=1;orthogonalLoop=1;jettySize=auto;html=1;curved=0;" parent="1" source="nfG761EomCiYScNcZpE6-99" target="nfG761EomCiYScNcZpE6-113" edge="1">
          <mxGeometry relative="1" as="geometry">
            <Array as="points">
              <mxPoint x="611" y="506" />
              <mxPoint x="696" y="506" />
            </Array>
          </mxGeometry>
        </mxCell>
        <mxCell id="bWXr1bDZ2tMtOz2vUo79-10" style="edgeStyle=orthogonalEdgeStyle;rounded=1;orthogonalLoop=1;jettySize=auto;html=1;curved=0;" parent="1" source="nfG761EomCiYScNcZpE6-99" target="bWXr1bDZ2tMtOz2vUo79-7" edge="1">
          <mxGeometry relative="1" as="geometry">
            <Array as="points">
              <mxPoint x="611" y="506" />
              <mxPoint x="440" y="506" />
            </Array>
          </mxGeometry>
        </mxCell>
        <mxCell id="nfG761EomCiYScNcZpE6-99" value="IGW" style="sketch=0;outlineConnect=0;fontColor=#232F3E;gradientColor=none;fillColor=#8C4FFF;strokeColor=none;dashed=0;verticalLabelPosition=bottom;verticalAlign=top;align=center;html=1;fontSize=12;fontStyle=0;aspect=fixed;pointerEvents=1;shape=mxgraph.aws4.internet_gateway;" parent="1" vertex="1">
          <mxGeometry x="582" y="440" width="58" height="58" as="geometry" />
        </mxCell>
        <mxCell id="nfG761EomCiYScNcZpE6-103" value="VPC main (10.1.0.0/16)" style="points=[[0,0],[0.25,0],[0.5,0],[0.75,0],[1,0],[1,0.25],[1,0.5],[1,0.75],[1,1],[0.75,1],[0.5,1],[0.25,1],[0,1],[0,0.75],[0,0.5],[0,0.25]];outlineConnect=0;gradientColor=none;html=1;whiteSpace=wrap;fontSize=12;fontStyle=0;container=0;pointerEvents=0;collapsible=0;recursiveResize=0;shape=mxgraph.aws4.group;grIcon=mxgraph.aws4.group_vpc2;strokeColor=#8C4FFF;fillColor=none;verticalAlign=top;align=left;spacingLeft=30;fontColor=#AAB7B8;dashed=0;" parent="1" vertex="1">
          <mxGeometry x="345" y="470" width="815" height="726" as="geometry" />
        </mxCell>
        <mxCell id="nfG761EomCiYScNcZpE6-71" value="Chatting Server ECS group" style="fillColor=none;strokeColor=#5A6C86;dashed=1;verticalAlign=top;fontStyle=0;fontColor=#5A6C86;whiteSpace=wrap;html=1;" parent="1" vertex="1">
          <mxGeometry x="519.11" y="705" width="355" height="450" as="geometry" />
        </mxCell>
        <mxCell id="nfG761EomCiYScNcZpE6-72" value="ECS" style="sketch=0;points=[[0,0,0],[0.25,0,0],[0.5,0,0],[0.75,0,0],[1,0,0],[0,1,0],[0.25,1,0],[0.5,1,0],[0.75,1,0],[1,1,0],[0,0.25,0],[0,0.5,0],[0,0.75,0],[1,0.25,0],[1,0.5,0],[1,0.75,0]];outlineConnect=0;fontColor=#232F3E;fillColor=#ED7100;strokeColor=#ffffff;dashed=0;verticalLabelPosition=bottom;verticalAlign=top;align=center;html=1;fontSize=12;fontStyle=0;aspect=fixed;shape=mxgraph.aws4.resourceIcon;resIcon=mxgraph.aws4.ecs;" parent="1" vertex="1">
          <mxGeometry x="519.11" y="705" width="50" height="50" as="geometry" />
        </mxCell>
        <mxCell id="nfG761EomCiYScNcZpE6-73" value="Auto Scaling group" style="points=[[0,0],[0.25,0],[0.5,0],[0.75,0],[1,0],[1,0.25],[1,0.5],[1,0.75],[1,1],[0.75,1],[0.5,1],[0.25,1],[0,1],[0,0.75],[0,0.5],[0,0.25]];outlineConnect=0;gradientColor=none;html=1;whiteSpace=wrap;fontSize=12;fontStyle=0;container=0;pointerEvents=0;collapsible=0;recursiveResize=0;shape=mxgraph.aws4.groupCenter;grIcon=mxgraph.aws4.group_auto_scaling_group;grStroke=1;strokeColor=#D86613;fillColor=none;verticalAlign=top;align=center;fontColor=#D86613;dashed=1;spacingTop=25;" parent="1" vertex="1">
          <mxGeometry x="541.11" y="974" width="310" height="161" as="geometry" />
        </mxCell>
        <mxCell id="nfG761EomCiYScNcZpE6-76" style="edgeStyle=orthogonalEdgeStyle;rounded=0;orthogonalLoop=1;jettySize=auto;html=1;exitX=0.5;exitY=1;exitDx=0;exitDy=0;exitPerimeter=0;" parent="1" source="nfG761EomCiYScNcZpE6-77" edge="1">
          <mxGeometry relative="1" as="geometry">
            <mxPoint x="696.1100000000001" y="865" as="targetPoint" />
          </mxGeometry>
        </mxCell>
        <mxCell id="nfG761EomCiYScNcZpE6-77" value="Chat Server (테스트 대상)" style="sketch=0;points=[[0,0,0],[0.25,0,0],[0.5,0,0],[0.75,0,0],[1,0,0],[0,1,0],[0.25,1,0],[0.5,1,0],[0.75,1,0],[1,1,0],[0,0.25,0],[0,0.5,0],[0,0.75,0],[1,0.25,0],[1,0.5,0],[1,0.75,0]];outlineConnect=0;fontColor=#232F3E;fillColor=#ED7100;strokeColor=#ffffff;dashed=0;verticalLabelPosition=bottom;verticalAlign=top;align=center;html=1;fontSize=12;fontStyle=0;aspect=fixed;shape=mxgraph.aws4.resourceIcon;resIcon=mxgraph.aws4.ec2;" parent="1" vertex="1">
          <mxGeometry x="670.11" y="765" width="52" height="52" as="geometry" />
        </mxCell>
        <mxCell id="nfG761EomCiYScNcZpE6-79" value="Push Server" style="sketch=0;points=[[0,0,0],[0.25,0,0],[0.5,0,0],[0.75,0,0],[1,0,0],[0,1,0],[0.25,1,0],[0.5,1,0],[0.75,1,0],[1,1,0],[0,0.25,0],[0,0.5,0],[0,0.75,0],[1,0.25,0],[1,0.5,0],[1,0.75,0]];outlineConnect=0;fontColor=#232F3E;fillColor=#ED7100;strokeColor=#ffffff;dashed=0;verticalLabelPosition=bottom;verticalAlign=top;align=center;html=1;fontSize=12;fontStyle=0;aspect=fixed;shape=mxgraph.aws4.resourceIcon;resIcon=mxgraph.aws4.ec2;" parent="1" vertex="1">
          <mxGeometry x="776.11" y="1030" width="52" height="52" as="geometry" />
        </mxCell>
        <mxCell id="nfG761EomCiYScNcZpE6-80" style="edgeStyle=orthogonalEdgeStyle;rounded=0;orthogonalLoop=1;jettySize=auto;html=1;entryX=0.5;entryY=0;entryDx=0;entryDy=0;" parent="1" edge="1">
          <mxGeometry relative="1" as="geometry">
            <mxPoint x="696.1099999999996" y="970" as="targetPoint" />
            <mxPoint x="696.090909090909" y="925" as="sourcePoint" />
          </mxGeometry>
        </mxCell>
        <mxCell id="nfG761EomCiYScNcZpE6-85" value="Prometheus" style="shape=image;verticalLabelPosition=bottom;labelBackgroundColor=none;verticalAlign=top;aspect=fixed;imageAspect=0;image=data:image/png,iVBORw0KGgoAAAANSUhEUgAAAf4AAAIACAMAAABUwf7jAAAABGdBTUEAALGPC/xhBQAAAAFzUkdCAK7OHOkAAAMAUExURUdwTP8AANdLMf9/ANdOMdtNMdxLLtpOMdhOMdlNL98/P8xmM/9VVdpMLr8/P9pLMeVMM9pNMdpOLthOLtpIJNdLLtRVKtdLMddOMddMLtlOMdpINtdLMeJVONdOMddOJ9RVKtpOMddLLtpOLthNMdpLMddLMNpMMdhOMdlOMNRVKtBFLtpOMddOLt1MM9pNMNpNMd1VM9pRLddOMdpNMNxRLtlNMdhMM9lOL9hMMdpLLtlOMtpNMdtNMtpOMdxLMNpML9pNMtlMMdtNL99KNdpNMddOL9pLLtdOLdlNMd9PL9hNMNpNMdpLMdlOMdlOLtdNMdlML9hNMtpQM9lOM9pNMddML9lOMNdOMdhNMN1NLNlOMNpMMddLMdhOMddPM9pOMdlPMNlNMdtPMuFLLdlLMNpNMdpLMdlOMdlMMdpOMNlLL9lOL9pNMdlNMNlPMdhOL9pOL9pNMdtOMdZRM9lPL9pOMdlNMdlOL9pOMNpPMNhNLtlNMdhOMtpOMNlOMdpNMNlNMNhOLtlOMdpOMdpMLttMM9pOMdpML9hOLthOLtlNMttOL9pOL9hOMdpMMNlOL9pOMNhOMNpOL9hPMdlQMdpOMNdLMdpOMdpOMNlOL9pML9pNMdpNMNlOMNpOMdpNMNpOMNpMMNlNMdlNMN5KMdlNMdhOMNpMLtpOMdlPMtpNMNtOMNlMMNlOMNlOMdtPL9lNL9hNL9hMMNlOMdpOMNpPMdpOL9pOMdtPMNlOL9pNMNpOMNpNMtdPL9hNL9pNMdlOMdpOMNpOMNlOMdlOMdpNMNpOMdlNMNlOMNlOMdlLNNpOLtpOMdpIMNpNMNpOMNhOMdpNMdhML9pNMtpNMNlOMdlMMNhMMNpOMdlNMNtNMNtPNNpNLtpOMdpMMdpMMNpMMNpNMNlOMNpNMNhMM9lNMNhPMNpOL9ZQLthMM9pOMdpLMdlOMdtMMdpOMdhOMdtMMdlQL9ZQNdlMMdlNMNpNMdhNMdlNMdlNMdxQMtlOMNhOL9pOMdtNMdpOMUeprQUAAAD/dFJOUwAB/QL+JCyM1MwIBQP6BPkK7fv1B/wG6fjw7g7vCRoNDPT26y7y4rToiRIL5PEeY7UPHOquFqsUt0PlUdlWiyVGOMUrGJv37CekEJ5381jg47FCIzfP3I80shdeU866LXFKgEcRL5HfPpAqG6KhjmfH0YpOGTCmv+eTWiGBa3h8qLjGld7LMmGn4dtmQVu5P0vds5JXKW/VaFR1wVxpo8pFvciHeh9tzeagPZhVdER7QGCXSYJ+Tby2OmWErUwgO3aWw3/TqpSfX4iwIjGvFcKZcslQcIOcnTWFWU8d1tC70mp9qY08eWTXJiiG2NpdYsA5NhO+c5qlUmwzbqzESA7iNIcAACAASURBVHja7F15fE3XFr6SmEIkuQlBEpEQiUTEPNY8pTHEUHMQQw0xBU8NMcRMa4yp5qKqKCmKouanvFJq1qqf1/LrrO95bdV7bX/74UpyhzPsfc65d3/n3vP9vc6669vfPcNee+21TSYDBjwEJXqlD224PnHD9ZPTb1Qedurmxvv3N9481b3yjeknV21IXH9tZ3rtEsYouRciKo4bnTNqRLWr3cr4EFn4hHW7Wm3EqJzR4ypGGGOnYwSk95/a+M/tgUQxAovWafxV/5XhxljqCpf2pJ3bEkI0Q2xG27T6l4xxhUfwxfMP7sUSpyC2b+HeF4ONMcZE+NBpWXfNxMkwr85qt9PXGG0o1H7yYIsfcRn8MxpfM94FECiQfmTH64QDHp77dmUBY/x54vtV2YGEI9r0fKegoQKfed2xWcsIALpNWhpgqOFarLxyrzSBQevFaT8YmrjqE//OrhQChyH7xhkTAudP7K/NjySgaP/7HSMt4ESUOrgxgUCjzIilxQydnIFi+8+FER2gbNuBxqqhxvCu3yqQ6AYVHnc2MgLaYfjXKURnmJ1TztBNCxQfl12S6BAlOx0rbqinEsePNiC6RZUPthkKqvjae6+vD9E1vGakGjMBZSj3Y03iBgj5vKWhJTP6jfQnbgL/ti0MPZnQdDFxK9TbY2hK/co/P4a4HbquN5JBNEhuV4W4JTquDTXUlUHLUe2J2yK6cG1DYQnUbRxE3BqR/4gzVBbBoKPtidsjYUp1Q2kBhB4oQzwCZXPKG2rbIX5aIPEYVFgbYChuBd+0EB4ymLOPnFjCJa08cZVRF5SLAos68pAgNu3ZVo1sTk+ASl8Ywj/HfzJ4DH/Ujedv4MP8XgF/9TC0N5UbweXpW7SL5ecvc/wE8Dnn6YtBvtP51O0uL2X5/ROc80DTPPoT4L0hfApx9uYG0Ir3JGDZE48V/+I6PkNeumHewwcg1fBrRc9M85zy4jPerfMXXzsgZAFKTvLAJkJ3eK3reaXmB1ELIw1UaamHid+rDrexXmUVRggBwXyPWgpMLMttoJdbhZGJkwcOPO8x4nfZzG+Yr1oX3nYgQOib6RHiFz8ZxW+Mw45bh1IYaiEo6DcP2BZysQ/PIU61iWU+2ErgnFfdXHzvb/x4jm+WbTT30FaC/dp5u7P6Vf/Nt9Cil204fQgcfq3hvuqv4LxBP9EungV48pPANW4qfsQIziPb3D6iSgQRbcu7o/qPuLdhe2Qf0l1I+Um3V9xvujeA+yb9jxyC2oQpPzF/7WZTwMyZ/Me0iUNUEwgqTrtVY4CDAAurtxzDqgMrPynb330m+zcAmjR4JTkG9jmu/MTnjJt0h4qrhzCcnwpE1psgIybZHdQfPxtiMJsJhPYKtPykWz/9q987CmIoM4RiS8aWnwRN1rn4xWaBjGSiYHgPwfUng3XdGKrcTJBhjI4XjO8WuvzktI63AhyORRnFVsIB7oWXn7zbTLcrPDgnLhwWqTvCl59EpepT/Wk4LRmriM2h9dBGyGe3DsUv8RhoBD8Wi/Ix0QNO6W4JIGIG0vh1FgvzmC7kJzE6WwOuAdWZr43o3eOrk1ZSfXTVHn481jv1vnikn+hDflJJRxnA/WAdut4UD3WeTuQnCU31ov4RtOMXksRjTfbXi/7mefpQ/wpc5kQqWr08/Z9OAFfpQf0zcONWRyrcRkQ/eBtf/bF4o5YjFW94tBrXrV1bv/ojuPgFZgHeNEslQx6pwnNIZxdXsQ2GLgEqvgPxmSm9caa+csezMxNdzeUW8C6wYmcR1Q+UeWClKHW8rKrJ9d2J5sOeCuEbA/nBVFQm7AEK/aZUNdXgsKrVCbQXXPwhzO/lWjJxH1emYdhKk+kPHnz6BiCqH466aWKwXOSKmo34L3l6JZ8Dpzb74qlf6kPU2fJvcqFPVuL1yNMLAzjVs8TAVQAW/wg2WfKzXOzBCo4SOPfsws68KJ0FKwDwfhk3VyZfLDWM2ec/w59dd4Abpx1Y8//PgFOl+2WjT2d+8VsasXJ8381CUn8UcqZ8qHz8zRldTrNcNpEjq7E46t+AXii5LU/gPJvHLZbUW22utA6gqN8OWn1C0S0tnKnpUMnxlqt28uV1BUP9qdjqE5rjs5ezOOwOUik0GkH9NT7g8idRkCjE4C82QmW2WCt4jeOvfrPW4OqTCzQ0miu46bhPd4K4HwZ1oSa6+oSqRpq+08PqvJRLJ+7UJnJuART3E7z6hOrYdF/qFvP5T9zL/Lmt5nogcLDrR+AQ82SbrkBiMKW3OfmXdAX4b2/mmP4v8Jrr+fYw9RvLNE2LouPSgtLdwfxLIJpD7OAnP4/OWAOe/m71ygx9wWtSkqHrRLHd6oohCPKTM7zUT+TB1lK7M/4l6gt+omRDN4tvZHUFSEvgn/mo/5aZB1kfy4d8RDXaC5pT0glIoHA223qlFaQhuP/7PNRvwqlT55EXBQa0Bdo9aQnto3D2h/UFr4NMbcpecL368UU4ke2UW2JA2R++LS2jufK+Emw6RBUBkZ90DXe5/FncUl25z98SdMvtjakpbZf1NUnBx6IrMMLV6qfx45p34FnodzTm9AtjX8n6SrexrwcjP5nqWvWXmPlRrZ8XRRLN6e8dqEkNkqvcXGdrD1Tg5nfYleoP59mw70h+HDR9+YZq90LrbWv+ACiz3cCF7R9LZfBkutUqEord+QXpeTWV9hQdYGu+G2ll47LrNn+d4krUulNPS/n8bwBDvXIlpjkEVmuAYa5S/zxfnpuYSo1qsjA7KulqiZ01WD/4L1yj/njOBR4hNjes3LLbVRZqBaU8VbFfOqyLJX+QS5p/BfBe4i9rE47c9vwsJnKXJTx1d7AOxNK/iCv2/nEvcWpjYpl9b2Ui94aEp2aqtwc4Gx87X/073ElWsA3otrT1G0zsksWn/gscrXeByS/TxkYD/K0Cd44hdiFlS1p3ZuNXS9TRckfjDWjyh9R2cn3PYv4cY+1iOiFpzdgMN1XU0UJHY7yjoKq5bao/D++yvIITWKsXxRIJgQJ7qoP94fT/rzPVr4hwPkcD+6jW0CYJaNBKxNFGIeNNcPK3buE89X0hVrjH2IdVQqJ/OPNS6BKWpEp3OPnJGOd1fpoEQdCxfEeij+w3zF83wiVcXr8IGT/Bk18gPaER9qPObqt6iRqzn4RcWNBPhqBtXcD9jT5NnaN+aEcMfmsdQxOfjwxnpin8OT9F2Lgr4O2/oLwbrvPlY4VjaJMpU0RUSBFyJFI1ANjAWjBDoR4nUB50AucaxosdyXNIAVGhp39QKWHbzojyeznh5MfguyjshBI580VsHyhgKvT0nyFW+BKNqH8R7Tf+fYDCLVJoy+Yalumagqd/OzFbyCbW2vf9KeSHQm2d4K4DkRqELiZtnv6PxGwnQ8rvv1Jb9b0zYKgVFgywk2ZffkJP/yjRp2loaUj9/9K27eMqHGaNBAMcreUKiEPJ3wRx256Q8mtb+L8N6GC+TMEIv9TyHehwIs0NcdtFmPJH19BQfqD9LGKlm4LLEQoTYEsZcofxkZj699RO/VQgWmLPc6HmLGaF+a94f7s8apyEMWoz62uaLfQNAWI1QCTIcQK2W5QytqsgeEnK9i1Q+buV0kj+t5FYLRQJsrrAsk9lpYy32voZKTkpWgCq/0mNyvuQDmSOFP1PC6y+7FdK+aCtH+kSmjOg8kf30kR+qLP5shmKEUqGKqV8iTLp8xzDS4Lqf1ML9W9DrWmL34grHGybKydtM/M3hyutDuYLr7kayD8TitL3onFmOthOV076U2s/Y2SM64PKT06rVx8rqT1EIlKH7sIqGh5PsfYj2znx76j6N1KrfkBHKD67JEK1P0M0REXe26aIL03OOhFV/hS1u/4GYPFpKBGq/ZEyG1XQ/sHakexGoeCJqPpPV6f+l1FQbKLiJWK1X/NfoYJ3Ceu83y+y5tNQ5Y8crkr+VlhsJI/jbWJr21pVxaNVbVMDiirYMFT996kZhC5mLDKLJCv0bQv+Oqn631t9+vfVUy2UPfyOqxiEkVhc/KXzOH1sjHurkr9xviOafRODElD1v6V8DJLA8lkx0uH+bvO3T1Yl/5v5nr5lnikiwVxQ8RhkgVGZJx1ujrVtPXXfvFY93qg6JoYGour/stIh6Ae2hckcJx2vTdp3sjr5k/I9xVFdsBtVfq90hUOAlsuW+wbrYWWboLLJtW/eX5+yXDQ4BVX/s8pGYC4aj3/JBJyszRePBSGsifMOqPL7vKpoAGLAaJSWPbTM6jC2oWrln5PrqZXCEiEcfKKEfzM0Fn/Khjwmz3aZ6jr3vIl/O32ujFtDydpXXzQSDWVDzu/xtVv1Smfeoc6pes2SqJoF/Q+NQ5h815K8+vygQarlz0vj0785hweh6s/+9n8NjQJF6VIO8/taHHmH+jIsHaBW/bF3OKpqRqOwUD7oxFzbiurl3/PCVQhLcUQD1Mw/68LfKDQGVSiO4s3dnTNBgxq33ENdmfYK7EW9/ceyka8erUcCud8r9TWQP+6FryyWi7zHgMpfJoKJ/Fo4AjTtCrdZTGdqUeBcwN/ijK0j+EDU2z+NhUWxjmjh96EJu7zFtr8W8ufWeo9mu+oQqPwpLEf9rIcL/zpV3M/v2KKaqJ+b9mP8L/VAzf2wtLmBa1dnputU/rzkcqA28r/IeRdivOwsqPwMN8UeuOBj6AJ/+NT0Q23UN7W1/HJ1xsuSULd8vU9NoR5c7JT7FYo+fU5o1dXIsss3WunfRq93kMnUBO79FUbZpnoCIbM0Ut90/fkvf8d8XaYfpvw+tF3OKsOF/hll5D3/z96Zh9d05nH8lVwlN7nJjSWSiASJNSHWoKLUFpSxq1CUULRjeEYtaWuJrYraS2prtCaU6EwtpWOsTbVqtDWMp2YIXaz1YGifPsO0Z+69WW9yl3PPyX3f7/ve9/v/Ob/v/X1yTs67/X5KbJvywp9ftEdDWdCvQR//H1WO+mrAOb+mMvPfe9CwWd0H0CTPL/wT6OM/U93Y7zk44wvUrt6//7dyo0/iPHlk7NQN9PFXV+0nA873PrWJPzSs/PAPs4XO1nDladCP/2aq3l1+cL5Vb1WvXX70SZAtDzlaLp2Oib+6mlp/eOeVphAmsn0C7dT+fwNPKqpcBiXAuf6WDX7b6l1HTZdmYOJ/w/2i+WE406aHbPDbNjtqqw6FWu7lN7fO+8N5/oINfbLFEjtcz5sDT24HRtF4X60dGOG39unpp/Hae5j4Te5GRtvgLPcxM8JvbVi7XeO1RtATn8fc+K4M53g6I/q2U1sZel4dgBqsboMjkKaywj9Bz99eR9BtH7dcusarUhAVxgp/RUv0dM1Xb8XE/51L03fg/D7Dij4xKk6bd6peMIRTrivP4/D8dmKGn6QoymPNF9eKwOTvqtjDRTi3LYPY4R+sKHe1X30BE7+r99kSOLfH2dG3zoAd1n71Mkz8LrYvLcJzm8UQ/xpFOar9an/QA39xHO3yighkiP+s6/+U7vQCJv6LTg2Ph/M6nSF90l5R9HTDO4qJf4kzvw/wvK5liT9OUWJ0XO5fA5O/sx4fT8E5DanJEr/Z4KerRBDonj9nh1bXwznNIEzVr4muy89h4nfSm6YpntPNbPFfSdB1ee0QTP6OS31MhvNpiGaLf80dfdeDzvsnOjR7Bs5nAFv6ZKlOA9sw8Sc58hoIV8/Fw8oa5a9B9/Vd/wATf0QwH5OU7RjjN+vrCEKC+2Dy38nFlF93I2P8ZL/O60E3fDua+LsK5/IAa/pkp94/H0z8DgolvYTn8jpz/HpXHDph4jd0LeM0Ec/lN4R3NQfd8fd5Gaf/g/MY5c89fluxIUDNLe0zCG9vUiv+6ZPFmPhDS69lTMPzmC0A/t6Y+JVRpXz+F8/iIAHwjwbFnwn/ljIZBcB/CRR/6e7m9eEcDhaAPqkAOu+3AP6vtJsI+Ml20Mf/ZTuXgE3oJguBH7TMj/K2nct0PIOPhMB/CBT/RDuXI+D8hYQJgf91UPwL7bYl4dX0CBCCPhkAir9KfAmTeBXcVZfxBVdHUPx2jdEAG9D9LAZ+Iyr+OSVMjsSz114M/CQKFH/Jxq6AhYimCYL/Jij+2GKLLQDtNRcE/wzUt3/xxM9ePHOhgtAnSaj4OyEvSwaIgn8PKv7iHve/4JlLEgX/P1HxF3f1zsUz10gU/LtR8ecVOgwEbD6TKQr+paj4QwrP+iB2HxBl2E/WouIvaoq9CdBblij4P4LFX9jVtxGgt49Fwd8OFn9hk7K2gN7iRMH/NCz+wq6uiAXoTouCfxEs/vr5BnshehsmCv4usPgL+hQ9QrQWLwr+irj481fVngN0ZqggCv7TuPjPwc5L1RGFPjmCi/95m8GTgM5qCIO/KS7+F2wGmwE6aykM/ku4+FNtBtcDOhNmuZ+8iov/qs1gVfm/34vqiIu/ntVfa0RnfsLgj8PFr1ibIw+CdGaWk77e11DYFcmXRcHfCRi/9ZznbEhnT4iCPwcY/waLv12QzgaIgn8zMP75Fn8NIJ39SxT83wHjtw78/wH7XhJCx4Hxz7P4GwI8ISmA+gPjT7b4w+w1u1oU/COA8YcSEozpbL0o+KOA8fv5k2GYzsKDxKDfS0FWG/IiqLOKYuAfBI2/B5kA6kyQcx7DofEftTaqhdQnYuBvBI1/KvkrqLP+YuBvBo3/HuiUv6I8KQb+mdD4NwD2bS5QCxHoR0PTV06Rz1CtdRABf3ts/BdIK1Rr6fLLz+tKwv02yRUB/zxs/KnkCqo1Q2v+6ZtN2PgzyFew3jbJnV7e1gzyLqy3nvzj/yM4/s7AC5Kh/K/65IHjD4A841OgCbzTbwFO3/J5vQTX3ETe8Wei408G7OBWpPq8H/Jfjo6/L2kI7O4a3/THmtDx7yCRwO728I3/Hjp9JRTyfG+hIqtxjX8kPP4+pAqyPa6XfaL94PGbiAHZ3hWe8R+Dp6/4kRBkewaeqzsm4+PvTupB+6vEL/2/4NNXmpAUaH+RZm7xJ3GAvyVkQd8SmsUr/ZeqcIA/gYzHNjjEn1P873FAX1kF/4Gylk/68ZE84L9JroI7zONz4v88D/SVPBKAbpHL015h/bjA/w7prMjH3weXevN1ArfHbJF+xx/9avX5wH8Af01aWRLIHf7HfNBXDpJUfJPreKMfU4MT/GfI915/wUydPTdZ18JSyljO8JdD396Q7d02D/L6EZzF3u8w3aSW9XlY8fPiVZpvcZIv+pfq6kpY1SnzE/9u/YcX7PWqWyfJIa+/YYoW7R/u/aSZpiWG6uO4wj9d+6Ny/9m7XYr2tw/wOprXKMxPpNrlZuCb6e94vAduHk+DP21LfSkjT3WoaP8z13gdTTa56/UYpjZlxkX/OT+3r0f3mMzRjM9lTxO0o8G+c03L3qiC96eOXiGjFQp/Y47UtX2jjao3GkZEc4N/vyep6dtqzuiuTm501Ptk0sgD7wdZ6DRVwYtm9VT3RchNlc/b4eqSYkhefOyDxq7uNN/7ZB6RgRSGl11cJqz11Pfuu38NfMgH/SAVR2ar505atzPG3Z0CY70P5ghpTgH/D26zZnkNbHFdW7rJES7w91YxnK+l6k7/pgCmNqGx07tlmKof3HrqqY3Oh8wneDjwGxfifjivUhRKgYdbwtA45ZWj+kcHD81e3NfZIBVetRyflw4/UXI4r05dKTyW1uJ5NE54b/Xsp0e//UPn7mVu4rcMHv/XDt58/Y9d03JY6ToFLFctcTZSiGPo4fHPDxw66/c37ZcKGqK393rF/ldXGbFnuNbK1P4LKGD5iVDakKyxOUfNAb2TSuThV+yl37f6FFsd/+nunWYd91pJg8pcS6BKNAI1idGeicZZs5OG5L8HdiHTr1mwa3ZmgzErv9R7swwaVBpZAs2isrL8WG9uV5x/P8+kfItL33+15Vtq9ZiPymV+8jaVo5eZtF4zyqry2K8fNu3NWrD4J8xOG1ZuN6PTXPE3SyRK7TxyiJRqtalLhYn1g9xMB3+AhKpeY6ggMRitsShtTOskqapVPJ1ztztswSi18fxKYlUrSkeE5tmCzaUTTJyuzN6WcQcdIL/Yop2ihP+EBKtO2ZSAXLRFm0wpmpImyapaN6L08Cs3bOHSaOHfXkGyVaGztHh8YAt3i1Y4Hk/r0VdMS1o4BuavrVGrPboqTNJ1q9do0QgJzg+YS+3xPyvpulPrPrRg5BVEnE4Nf1QbydeN9lCDsaUgIsVGnnskX9e6Ta8g2IaCkKPp4febJgm7FMW+eoXjcJo9RzrLwZ8rUXwSlaKtczSLkN2TjJ0rjGKZvdiiqBsp4k+RX3/OdZ0iiJ+KoqZTjKpMkpSdqSnN3hrFjbKW0sRfMNcoVVZnaGJILAr7NFX8C8wStEPR7fb+TVHceLotPSZK0o5UM4EmBL8Sm2bp9nL0uyZZO9BxqhCSS0TuSTWyskS+/stqBd1XcMkv8M108fNWqY2GalHupru0ROw4yvgNWZJ3KaVTRvBiidj+EZSDJ4yVwO2URbmhXqTd5HtbyviVTyXxkhqbQDn/DezCz6GNn5dSTZREve3Xdbvwy6jj71NRQi9SIvX0T7CLb6bfdixAbvwrVI86tJMfYrR3sJA6fuUPknvBmI9+O60ppSxMpI/fcFiSt6kb/dyXbo6bQ9+CEtpUorfoLoPUl26PFs3AgzIlUMIn4+oyyHzr0i7usOD/rKTfawiDvFcuY2MiC/yy5It/MxZpr1TGRxoT/PV6+Dj+p5ikvV0ZH8a6TIxcru3T9IczSXodB1MuB5k4UZJ8mf7H4UxynurASjYb/Epv36U/MJZNyjc78NKREX4/ny360TiZUcpfdeRmCCMzkT66+GPcyCjhdxzaSWfkRlkf44v0/Vuxyrfj2ZaVrOwo/X3x3OcuZul2/N/WHM7M0I++R38fs2TXNTp2tJyZI+VzX6O/m12umzmxNIudJZOPlfxcyi7Vtir+jtTVj52nqpV9SgwzXd1pp5EZipTwGun0lZQpkyO+bjjF/2V1mR3RZXLRNvqKTI/oOujig/SGTI/ocnW8pnEVmR+xFdLL1Xi0rUyQ2Ep1OR3xoUyQ2Nrket9piMyQyOruZnF1tUyRyGrlZjI6R6ZIZJ1zgz+spcyRuJoZjLnxXIqK3O+r6CGTJKwMA90vRW+UaRJVW1XsRNgk0ySq1DTSM0bKPImplGpqNiKtkYkSU+qq6YySiRJTb6nbh/iuzJSI+lXlNtREmSoRpbaQZnwEfW8XKvmUPqOf4SgzcMkJHzvm+QT9DJ9Sba6FSeIXDb8pWr27nhK/aPg96Z83TeIXDf8oT+wdkPjFwr/cI3t7JX6x8Gd55q+yxC8S/jwP/b0u8YuEf7iH/sJ2SPzi4E/wuHb2NolfHPzHPDY4to7ELwr+es09d3hK4hcF/yENDh/Wk/jFwB+hqWfmPolfDPz7NVlsHinxi4A/paY2j3+W+EXAr7Vkeu1YiZ9//DXitZrcIPHzj/95zSbNDSV+3vE/adTucp3Ezzv+WTpcVusn8fON/w1djbIzJX6+8d/QZTP4ssTPM/7cIH0+0yR+nvG302u0gcTPL/4vdBu9Zfp/e+f+FFUZxvF3l9Vid1kWEAGRuCOgroIoF7kKiiuKJiKIGIqA4gWTEAxtHJVLiEiNomIqXsAbNVI65AW0mrymeZlGLW0SzEpnnMoxq5km+6GZZpo0Fc553uc9+3z+guf7/e455z3P8553KX5R47eVwNUCil/U+AslqDRoCMUvZvz+kvxB3gKKX8z4B0lSqn4hxS9i/NOspKl1NcUvYvz7pCq2jeIXL/5bkhW7xIviFy1+hybpqh1L8YsW/y8SVmuYRvGLFX+5XspyKxwpfpHit8+Vtt5oil+k+HdKXK/bZIpfnPjvaaUuOJziFyZ+TYv0FZ+i+EWJf6QMFQf6U/xixL94jBwlr6P4xYi/Xp6ap1D8IsR/XqaaE+hfvgTAaahcv9lWMhc/M+S7ZzWTu9g5KeMjy/gD+YubDVo5lyznbMlhzDjnyrtk/Ygsxsx0md9YVNvJY7ysUcn9xhpsRy5jxbtI/o5FPdmMlesQHaur5DNOmkEalsaF5DRGdmtB4mcpfclrfNgdgxpYvKUht7GhjoUbWGWT3djYDzivVPUjv3FxVgUYPxszmRzHRKQrA8XHgTzHg2c89H6VGjIdD1Hw+5XWkutY+JbDdjXdOxwF+1kjYwJHM7YbeGxXDIzkp3gTtr2bjfy8+HoMH8kp/LZ+LsMW/0FuVvgf46U5bhQvzUexxV/IywmHa/xEZ/Lq/q7EFv8VXr3e6zxVv8dJdRu2+Hm1Qdfzlf0xH9UjsMVfzseHPM6y9YO5yI7AFj+fLXAvW/HW7TGNi3B3XOmHcjGh3Mhf+Ut+PJSn44r/OA8PZmVgkH7Hn4P0I7ji38XBgj0pOLRncXjwXcUVvxneAe94LOLTB4KL34Ar/lXgBrhU4FG/D3z6r0nAlL4JfsJ/GJP+WGdo/VMxya+GVj9qIq6732v2wAYUY1IfAizeph1b3yNZDeuArxaPdg8vWO3qKIaOH4HHP5l4pANvfNNUMoT8brFTH+B5zxsMJdWg938bNGt/kyPonf97hpQaUB/Q7Pg5Cqna/iuGluG2gEZM0OEQrYVsejtfZ4iZCbkGHoRDcwegZIdtDDWzfeG8uKfHoNgwC07xwNsMOff7wLnxvoV1/OzSGXp8nOCe/ghaPx6LweT6ZzEBGD0AzJDv+KtdCibWL4YJgelFsLmXibfWHmCfOty8wQQh6EMoT6bwlvoNlNI1rkwYdKegXOE8/DgNpXOkgYlEJ9Ri+CWeKpuAtjlpGplgbAZqAL6i4qfR6iegVl8yE45aoAYAx9Y/ULPf7jYTkLtlMBOwWF4CW2F2OEy+w4Rk6A6Yi4PT+3AdzOGmK0KZoGjngxi0iotBGTC9/iQtE5cOGwiLRrhxaPY2QCizXcCE5ucICJeW9wa/sT0AnvO5jAAAA81JREFUGWpMYoKTAXIAWAhwV0QH8l17yVAmPIY0CKfO9oLU5HYIQtMLeqYEkj0h2j9GOEHuEO2ecVFMIfSE+ALyMtidsmg3gJzIOUwxBJ0FMKysDujHDHGeRZsrUxJbAPaAurRCKBkOMOZxqGYK4y7AGUCag7IfdaQPALj0rUczxdE7GqBFvn2uvCJMFwCGGGd0TImEA2wCtBsup4J1AG3+CS1MoQS2Adw5i2WbAGT8AVD+sBymXAYBtAC8N8tSuqoSYAPDuEqmaGIuA1xBFxZJX3j6qwCF70hhCkd/CeAYKPVFibcA3kgCWLd6fmHFlM+SNQDXkVdhoHQVh6ZBnFwV1sQsg6mJAG76Rkv0b/bB+RDH1sm0YkHJ58UQEzPnkT7dL/Vcki1EreZQZknMqALZKvVJcrcGwdrSFSBljv+TWRgea2FOAurzQVxXSzz80AWkRHVaf2Z5xFk/gqEq7fZzL6mtZudDHVTfcJ9ZJKpKsG/jE988/RyvgnMrb4EdUh4xVcUsFfedgGcBvz3vyKKnDlN6n6veCnhay6gv+zNL5jPY43BtU/c21vsEPa6SoNx3G/em2oCWM+wYs3RWL3wEjmdkSUhSQXbjpvXrNzVmFySFlER6wleRWssIpl/g/cgCcTpiRdn/fd+N9rK08L0CXCn3fyh63daSwnfOS6DM/4Xpob2lhG/THEx5//clYK+jJYTvmLSEsn4so4vVSg9fbY6hnJ9IzzaNksPXDJtDGf8vuVttFPvMn+9D+T6V4OiBSgzfJWAuZftso4BLVUoLf/x0d8r1mTGU7lZS+NbJBsr0OWcBgxWyCtT0a6E0u0BdXh/xw7fLr6Mku4i2tETsC/9BaS9KsTvEBDiJGr7/mR6UX7fRZS4XsBmoDvtNR9lJQ9NSP7HCr8o2UWoSojqet0eU7CPyD6soMamxmr1SgGWA/8l9lL1M6MMvJmLO3rt5op5SkrUfOPOqHc7sE6/EUm8P4ikQt7QB2buAekf2JNq5CUdojXkIluyd5pWGUiLgN4FrnSu43wQcRyxLp6UeLwLr0xq4bRG1uVyQmUMZcMa4elmYC3T0fQ/tbzGS91geBFkbzWBfZpZt3ZhF6zx0FB0Y++unsu4UtLlpHnugiJzGi85nc0CYDH8gNOBQQE0WDXEEWRK2bCk8US7Jp6PeDScCtrQEkqfi4dGzdVfB+dQuLQz7poYU7Grv6UEuCo9bcG54VEdnnnl5+SzfJ/YK1L5l5WHm/M6OqPDcYC25plAMxpwEU0x8RVzttvb2bbVxFfExpowcoyU27P8C6rIKu/5ZqAwAAAAASUVORK5CYII=;" parent="1" vertex="1">
          <mxGeometry x="410.23000000000013" y="886" width="59.77" height="60" as="geometry" />
        </mxCell>
        <mxCell id="nfG761EomCiYScNcZpE6-88" value="각종 Metric 수집" style="text;html=1;align=center;verticalAlign=middle;resizable=0;points=[];autosize=1;strokeColor=none;fillColor=none;" parent="1" vertex="1">
          <mxGeometry x="470" y="891" width="100" height="30" as="geometry" />
        </mxCell>
        <mxCell id="nfG761EomCiYScNcZpE6-117" style="edgeStyle=orthogonalEdgeStyle;rounded=1;orthogonalLoop=1;jettySize=auto;html=1;entryX=0.5;entryY=0;entryDx=0;entryDy=0;entryPerimeter=0;curved=0;" parent="1" source="nfG761EomCiYScNcZpE6-113" target="nfG761EomCiYScNcZpE6-77" edge="1">
          <mxGeometry relative="1" as="geometry">
            <Array as="points">
              <mxPoint x="696" y="626" />
              <mxPoint x="696" y="626" />
            </Array>
          </mxGeometry>
        </mxCell>
        <mxCell id="nfG761EomCiYScNcZpE6-128" value="Postgresql RDS" style="sketch=0;points=[[0,0,0],[0.25,0,0],[0.5,0,0],[0.75,0,0],[1,0,0],[0,1,0],[0.25,1,0],[0.5,1,0],[0.75,1,0],[1,1,0],[0,0.25,0],[0,0.5,0],[0,0.75,0],[1,0.25,0],[1,0.5,0],[1,0.75,0]];outlineConnect=0;fontColor=#232F3E;fillColor=#C925D1;strokeColor=#ffffff;dashed=0;verticalLabelPosition=bottom;verticalAlign=top;align=center;html=1;fontSize=12;fontStyle=0;aspect=fixed;shape=mxgraph.aws4.resourceIcon;resIcon=mxgraph.aws4.rds;" parent="1" vertex="1">
          <mxGeometry x="1003.9999999999999" y="811" width="52" height="52" as="geometry" />
        </mxCell>
        <mxCell id="nfG761EomCiYScNcZpE6-130" value="Ngrinder EFS" style="sketch=0;points=[[0,0,0],[0.25,0,0],[0.5,0,0],[0.75,0,0],[1,0,0],[0,1,0],[0.25,1,0],[0.5,1,0],[0.75,1,0],[1,1,0],[0,0.25,0],[0,0.5,0],[0,0.75,0],[1,0.25,0],[1,0.5,0],[1,0.75,0]];outlineConnect=0;fontColor=#232F3E;fillColor=#7AA116;strokeColor=#ffffff;dashed=0;verticalLabelPosition=bottom;verticalAlign=top;align=center;html=1;fontSize=12;fontStyle=0;aspect=fixed;shape=mxgraph.aws4.resourceIcon;resIcon=mxgraph.aws4.elastic_file_system;" parent="1" vertex="1">
          <mxGeometry x="1210" y="243.5" width="50" height="50" as="geometry" />
        </mxCell>
        <mxCell id="nfG761EomCiYScNcZpE6-74" value="Push Server" style="sketch=0;points=[[0,0,0],[0.25,0,0],[0.5,0,0],[0.75,0,0],[1,0,0],[0,1,0],[0.25,1,0],[0.5,1,0],[0.75,1,0],[1,1,0],[0,0.25,0],[0,0.5,0],[0,0.75,0],[1,0.25,0],[1,0.5,0],[1,0.75,0]];outlineConnect=0;fontColor=#232F3E;fillColor=#ED7100;strokeColor=#ffffff;dashed=0;verticalLabelPosition=bottom;verticalAlign=top;align=center;html=1;fontSize=12;fontStyle=0;aspect=fixed;shape=mxgraph.aws4.resourceIcon;resIcon=mxgraph.aws4.ec2;" parent="1" vertex="1">
          <mxGeometry x="561.11" y="1030" width="52" height="52" as="geometry" />
        </mxCell>
        <mxCell id="nfG761EomCiYScNcZpE6-75" value="Push Server" style="sketch=0;points=[[0,0,0],[0.25,0,0],[0.5,0,0],[0.75,0,0],[1,0,0],[0,1,0],[0.25,1,0],[0.5,1,0],[0.75,1,0],[1,1,0],[0,0.25,0],[0,0.5,0],[0,0.75,0],[1,0.25,0],[1,0.5,0],[1,0.75,0]];outlineConnect=0;fontColor=#232F3E;fillColor=#ED7100;strokeColor=#ffffff;dashed=0;verticalLabelPosition=bottom;verticalAlign=top;align=center;html=1;fontSize=12;fontStyle=0;aspect=fixed;shape=mxgraph.aws4.resourceIcon;resIcon=mxgraph.aws4.ec2;" parent="1" vertex="1">
          <mxGeometry x="670.11" y="1030" width="52" height="52" as="geometry" />
        </mxCell>
        <mxCell id="nfG761EomCiYScNcZpE6-132" style="edgeStyle=orthogonalEdgeStyle;rounded=1;orthogonalLoop=1;jettySize=auto;html=1;exitX=1;exitY=0.5;exitDx=0;exitDy=0;exitPerimeter=0;entryX=0;entryY=0.5;entryDx=0;entryDy=0;entryPerimeter=0;curved=0;" parent="1" source="nfG761EomCiYScNcZpE6-77" target="nfG761EomCiYScNcZpE6-128" edge="1">
          <mxGeometry relative="1" as="geometry">
            <Array as="points">
              <mxPoint x="910" y="791" />
              <mxPoint x="910" y="837" />
            </Array>
          </mxGeometry>
        </mxCell>
        <mxCell id="nfG761EomCiYScNcZpE6-138" value="각종 Metric 수집" style="text;html=1;align=center;verticalAlign=middle;resizable=0;points=[];autosize=1;strokeColor=none;fillColor=none;" parent="1" vertex="1">
          <mxGeometry x="441.9999999999999" y="1091" width="100" height="30" as="geometry" />
        </mxCell>
        <mxCell id="nfG761EomCiYScNcZpE6-142" style="edgeStyle=orthogonalEdgeStyle;rounded=1;orthogonalLoop=1;jettySize=auto;html=1;curved=0;" parent="1" source="nfG761EomCiYScNcZpE6-90" target="nfG761EomCiYScNcZpE6-99" edge="1">
          <mxGeometry relative="1" as="geometry">
            <Array as="points">
              <mxPoint x="810" y="481" />
            </Array>
          </mxGeometry>
        </mxCell>
        <mxCell id="nfG761EomCiYScNcZpE6-147" value="&lt;h1 style=&quot;margin-top: 0px;&quot;&gt;서버 사양 정리&lt;/h1&gt;&lt;p&gt;&lt;/p&gt;&lt;ul&gt;&lt;li&gt;&lt;font style=&quot;font-size: 15px;&quot;&gt;Ngrinder Controller&lt;/font&gt;&lt;/li&gt;&lt;ul&gt;&lt;li&gt;&lt;font style=&quot;font-size: 15px;&quot;&gt;1 vCPU 2GB RAM&lt;/font&gt;&lt;/li&gt;&lt;/ul&gt;&lt;/ul&gt;&lt;div&gt;&lt;span style=&quot;font-size: 15px;&quot;&gt;&lt;br&gt;&lt;/span&gt;&lt;/div&gt;&lt;ul&gt;&lt;li&gt;&lt;font style=&quot;font-size: 15px;&quot;&gt;Ngrinder Agent x N (3)&lt;/font&gt;&lt;/li&gt;&lt;ul&gt;&lt;li&gt;&lt;font style=&quot;font-size: 15px;&quot;&gt;2 vCPU 4GB&amp;nbsp;RAM&lt;/font&gt;&lt;/li&gt;&lt;/ul&gt;&lt;/ul&gt;&lt;div&gt;&lt;br&gt;&lt;/div&gt;&lt;ul&gt;&lt;li&gt;&lt;font style=&quot;font-size: 15px;&quot;&gt;Chat Server&lt;/font&gt;&lt;/li&gt;&lt;ul&gt;&lt;li&gt;&lt;font style=&quot;font-size: 15px;&quot;&gt;2 vCPU 4GB&amp;nbsp;RAM&lt;/font&gt;&lt;/li&gt;&lt;/ul&gt;&lt;/ul&gt;&lt;div&gt;&lt;span style=&quot;font-size: 15px;&quot;&gt;&lt;br&gt;&lt;/span&gt;&lt;/div&gt;&lt;ul&gt;&lt;li&gt;&lt;font style=&quot;font-size: 15px;&quot;&gt;Push Server x N (1~3)&lt;/font&gt;&lt;/li&gt;&lt;ul&gt;&lt;li&gt;&lt;font style=&quot;font-size: 15px;&quot;&gt;2 vCPU 4GB&amp;nbsp;RAM&lt;/font&gt;&lt;/li&gt;&lt;/ul&gt;&lt;/ul&gt;&lt;div&gt;&lt;span style=&quot;font-size: 15px;&quot;&gt;&lt;br&gt;&lt;/span&gt;&lt;/div&gt;&lt;ul&gt;&lt;li&gt;&lt;font style=&quot;font-size: 15px;&quot;&gt;Prometheus Server&lt;/font&gt;&lt;/li&gt;&lt;ul&gt;&lt;li&gt;&lt;font style=&quot;font-size: 15px;&quot;&gt;2 vCPU 4GB&amp;nbsp;RAM&lt;/font&gt;&lt;/li&gt;&lt;/ul&gt;&lt;/ul&gt;&lt;div&gt;&lt;span style=&quot;font-size: 15px;&quot;&gt;&lt;br&gt;&lt;/span&gt;&lt;/div&gt;&lt;ul&gt;&lt;li&gt;&lt;font style=&quot;font-size: 15px;&quot;&gt;Grafana Server&lt;/font&gt;&lt;/li&gt;&lt;ul&gt;&lt;li&gt;&lt;font style=&quot;font-size: 15px;&quot;&gt;1 vCPU 2GB&amp;nbsp;RAM&lt;/font&gt;&lt;/li&gt;&lt;/ul&gt;&lt;/ul&gt;&lt;div&gt;&lt;span style=&quot;font-size: 15px;&quot;&gt;&lt;br&gt;&lt;/span&gt;&lt;/div&gt;&lt;div&gt;&lt;ul&gt;&lt;li&gt;&lt;span style=&quot;font-size: 15px;&quot;&gt;Bastion Server&lt;/span&gt;&lt;/li&gt;&lt;ul&gt;&lt;li&gt;&lt;span style=&quot;font-size: 15px;&quot;&gt;1 vCPU 2GB RAM&lt;/span&gt;&lt;/li&gt;&lt;/ul&gt;&lt;/ul&gt;&lt;/div&gt;&lt;div&gt;&lt;span style=&quot;font-size: 15px;&quot;&gt;&lt;br&gt;&lt;/span&gt;&lt;/div&gt;&lt;ul&gt;&lt;li&gt;&lt;font style=&quot;font-size: 15px;&quot;&gt;Postgresql RDS&lt;/font&gt;&lt;/li&gt;&lt;ul&gt;&lt;li&gt;&lt;font style=&quot;font-size: 15px;&quot;&gt;2 vCPU 4GB RAM&lt;/font&gt;&lt;/li&gt;&lt;/ul&gt;&lt;/ul&gt;&lt;p&gt;&lt;/p&gt;&lt;p&gt;&lt;br&gt;&lt;/p&gt;" style="text;html=1;whiteSpace=wrap;overflow=hidden;rounded=0;fontFamily=Comic Sans MS;spacing=2;" parent="1" vertex="1">
          <mxGeometry x="1350" y="80" width="260" height="658" as="geometry" />
        </mxCell>
        <mxCell id="bWXr1bDZ2tMtOz2vUo79-2" style="edgeStyle=orthogonalEdgeStyle;rounded=0;orthogonalLoop=1;jettySize=auto;html=1;exitX=0.5;exitY=1;exitDx=0;exitDy=0;entryX=0.5;entryY=0;entryDx=0;entryDy=0;" parent="1" source="nfG761EomCiYScNcZpE6-83" target="nfG761EomCiYScNcZpE6-85" edge="1">
          <mxGeometry relative="1" as="geometry" />
        </mxCell>
        <mxCell id="nfG761EomCiYScNcZpE6-83" value="Grafana" style="shape=image;verticalLabelPosition=bottom;labelBackgroundColor=none;verticalAlign=top;aspect=fixed;imageAspect=0;image=data:image/png,iVBORw0KGgoAAAANSUhEUgAAAgAAAAIACAYAAAD0eNT6AAAACXBIWXMAAA7EAAAOxAGVKw4bAAAgAElEQVR4nOzda3gV5bk38P/9zKyVRU4kAQOESAPBBKmitVRbqrbFCnioWnVREEg3rVKt1YrW9rWH18vta91uK3jYVotathzEJtpa65FW6m6trTa1llo3iYApBoQAORMWWTPP/X4ArQcCOayZZ2bW/buu9UXDPP8kK2vueY4EIYQYopb5lRNzXHs5M7a7lnv9iNUbXzedSQhxaGQ6gBAivGqTUDPs6m+B6AYAiQP/WRPznV2x7hvLV2xtNZlPCNE3KQCEEIPSMr9yYlzbawCa2seXtDLxjb/ubbhzdh20r+GEEIclBYAQYsDa5lV/hZjuAJB/uK9VxOt7mS8Z+VDjyz5EE0L0kxQAQoh+a01OKFRW7AEounCA/1QT8537nNYflNbt7PYknBBiQKQAEEL0y66Lqk60oX4GoGIIl2nSrBeUrGl8IUOxhBCDJAWAEOKwOuZXfYO1uhX/mug3FBrQ/7Exv/H6qcvgZOB6QohBkAJACNGnt5LliYJ47nKwmpP5q3N9r3Lmlq7atDHz1xZCHI4UAEKIg9pVU1VmO/TLQ8zyz4RuWLywaGXDIx62IYQ4CCkAhBAfcmC8/1cASv1ojwk/3pS34ZsyJCCEf6QAEEK8T1tN9Tnk0M+QmfH+AeB13XZ3UjYPEsIfUgAIId7VNq/6KmK6DYAyFKHJJecs2UpYCO+Z+iMXQgRM67zqW4lpKcx+LlRYbL/UUVM1y2AGIbKC9AAIkeX27+c/6ScgXGw6y3toJr6keHXDT00HESKqpAAQIovVL4I9sbN6zSB29vMFkb5++OrGfzedQ4gokgJAiCwV9Jv/O4j59uFrGhabziFE1EgBIEQWql8Ee2J3dR1A55nO0i+M+9c6G74mpwoKkTmW6QBCCH/VJqE+ka5+GETnm87Sb4QTKtXIsSccvevJutfBpuMIEQWyCkCILDMzNml50Lv9D4pw8czYpOWmYwgRFVIACJFFOuZWL2WgxnSOwWKgpm3epLtN5xAiCqQAECJLtM+t/jYTXWU6x1AR4+vtF1XdZDqHEGEnkwCFyAId86rnM9NK0zkyiYkXF69uuN10DiHCSgoAISKudW7VyYrUr+H73v6e07D4S3KSoBCDIwWAEBHWNqeiglTiLwBKTGfxSMqB/szIhxpfNh1EiLCRAkCIiGpNTihU8dhLYJpkOovHWhxbf2zkisZtpoMIESYyCVCIiFJW7IEsuPkDQKnt0C/fSpZHbYhDCE9JASBEBLXPrf52KNf6DxpNLYzl/8R0CiHCRIYAhIiYA5P+/gfZWOCz+7WiNW8sMx1DiDCQAkCICNm+oLI04cT+CkKZ6SyGpFjpk4pXNa43HUSIoMu+JwQhIizh2suz+OYPAAli+pnMBxDi8KQAECIi2ucetQigM03nMI5pUn48/zbTMYQIOhkCECICWuZXTozr2N8Rvc1+Bo/0aUWrG9eZjiFEUEkPgBAhV5uEynHt5ZCb//tptbI1OaHQdAwhgkoKACFC7vR49ZVMdLLpHIFDKKN4/GbTMYQIKhkCECLEDmz1+3cA+aazBJTWrD9TsqbxBdNBhAga6QEQIsRI5dwNufkfirIV3V2blM86IT5I/iiECKn2BdUXyqz/w9NMU2bmVH3ddA4hgkaGAIQIobeS5YmCWP7/AqgwnSUkWrvtrqPKV2xtNR1EiKCQHgAhQqgwnvttyM1/IEoK0vk/MB1CiCCRHgAhQmb7gsrShBvbBBn7H6gU69TRxQ83NZkOIkQQSA+AECGTo2PXQ27+g5FQKnGD6RBCBIX0AAgRIgd2/GuAFO+DpV1yjh2xeuPrpoMIYZp8iAgRInHHvhnydzsUymb7O6ZDCBEE0gMgREjsnjdxssX23yEFwFBp1qlKmQsgsp18kAgREgeeXOVvdugUrMS1pkMIYZr0AAgRAge2/N0EKQAypVune8eW1G3uNB1ECFPkw0SIECBKfA/y95pJ+cqOXWo6hBAmyQeKEAHXXDO2BIT5pnNEDtFlckaAyGby5hci4PLT+RcDSJjOEUEVM4dVzTAdQghTpAAQIsBqk1Agusx0jqjiXvqq6QxCmCIFgBABduAJtcJ0jshSdHZzzdgS0zGEMEEKACECTJ5QPZfIT+deaDqEECZIASBEQDXXjC2BorNN54g8Ul8yHUEIE6QAECKgDjyZyuQ/z9Fnty+oLDWdQgi/2aYDCCH6QOpc0xGyhEpo6462edW/Zs2NvbbbOHrlphbToYTwmuwEKEQAtSYnFKpYfAekB8CUVmJ+XStar0j/r+viVcdpe7W0bme36WBhUpuEmj6sajQclFs2jYaLkQAKFbgQmooZlE+EOJOOv/NviFUvM3oJ3M3EPWzTS8UrGh43+G1ElhQAQgRQx7zq+cy00nQO8SFN0FwPwp+huF73OvWynfD++Sq56bzJloXjNaujiXkSQBMAjMbQi9gU69TRcnhT5skQgBABxC7OlRk6gVQBRRUALgQTVCyu2+dVN0LTC6z4jxrun0as3vi64Yyea5tfNUUBp0KrTzBwKhxUgADW7zxVZvTZMkFW/GYAczN5USE9AEIEUvtFk3YAkIlp4dQKzevI5v9xWK+LQkGwq6aqzHJpFoFPB6vp8P+9qVnpjxWvalzvc7uRJgWAEAGzq6aqzHbUVtM5RIYwthHhNyD+9V7lrA3LBMO2ORUVRDmzCfgCE02D8VVj/FTRQw1nmc0QLVIACBEg2xdUlg7T1qXM6gbTWYRXuB7gtZrx9G+cxhdn10GbTvSO1uSEQorHLlQaC5noZNN5PsiBPmnkQ40vm84RFVIACGFY2/yqKYpxHjN9AaATYPxJS/iolYAn2OJf6VR6rakJhW3zq6aQq64AYQ6AfBMZ+ocfK3qo4YumU0SFFABC+Kx+EeyjUlWf57S6AMCZIJSZziQCIQXwOrD+ZcrWj/kxVNBRUzWLHboWoOlet5UpLjkfjcK8iiCQAkAIH7xz04ej5jJwPgL9lCUCQAP8PFj/rDvW80j5iq2tmbx4+4LqC6FxI5gmZfK6vmDcX7RmwyWmY0SBFABCeKh1btXJpNRcYswBIKfOicHQAD9DhDWdvXseObKuOTXYC3XUVM0il27RTFMyGdBn3TrdO1b2Xxg6KQCEyLC2ORUVyorXMKuFkKN8RWZ1g/Gwhn6wZE3jC/39R23zq6aQpqVh6uo/FCZeXLy64XbTOcJOCgAhMqB+EeyJe6vPg4uFAM2CTOQTXiPeAI3lKdv5777mC7Qkj8i34yXXK6arEaH3pCJeX7i64TjTOcJOCgAhhqBlfuVEm+2vKaYayMY9wowUND+hie94b69A+7yq6WD1ACLaCyVLAodOCgAhBqg2CXX6sOqzycE3o9KlKqJBEa93gTuUxrFMdJXpPF5iwo+LV2+43HSOMJMCQIh+OrBJyleI6ZuI6FOVECHSsja9YUyQNlIKGykAhDiMtjkVFYpyvslEF0OW7wkRHKRPK1rduM50jLCS0wCF6MPueRMn22x/h4H5HKEJVEJEhlZzAUgBMEhSAAjxAbsuqjrRBl0HpvPYdBghxKGcaTpAmMkQgBAHHLjx3ywT+4QID1b6ODkmeHCkB0BkvQM3/usBkqcJIUKGXJoFQAqAQZACQGSt3fMmTrbYugmg80xnEUIMDgFfAPCfpnOEkQwBiKyzq6aqzE6rG0D4CmRynxBhl9qYv6Fg6jI4poOEjfQAiKzRkjwiPx4rvg6OuhqEhOk8QoiMSEzoqvok0P+zEcR+UgBkgfpFsCe0TcjtTVAiJ+3mvvPf07ZlA4BSVk8Ke1Lxvb29z2NnTxQ31uiYVz2fNd0CoMx0FiFEZinQNABSAAyQDAGEUG0S6nSrYhxZ8QkEKmONMgLGMKMcCiUACgEaCWAkgFwMvJs7BaATxK2ksYsJu8C0i5R+izVv55jaDs1N6X1tm0vrdnZn+vvLpAMT/O4GaKrpLEIIr/BjRQ81fNF0irCRAiDAti+oLE1o6xgiTNasjibmSQBNADAOQRm7Zmwj8GYQbWbmf1CM16eB9SNXNG4zGas1OaFQ2fHbZJxfiKzQVPTQhvGmQ4SNFAAB0TanooJiOVO1xkmKcQJAxyDcp8u1AvwqwH9im17ax86f+jqyNNM65lXPZ6bbEO6fnxBiAHS6d3hJ3eZO0znCRAoAA+oXwZ7QVfVJBZoGwqcAOhVAielcPmgi4Hcg/nXa4nWZ7iVomV85Ma7tn8hGPkJkH836lPcehywOTwoAH9QmoabHqqbaTJ8FYSb2T1iRWejEGxi0DhY/2713z9oj65pTg7lMbRJqhl39LRDdAPm5CpGVmPirxasbfmo6R5hIAeCR1uSEQpWIzSCXvsDALEh39OGkAH6GCb/aY3U/Vr5ia2t//lHb/KoppOkBmeQnRLbTPyx6qPF7plOEiRQAGbR/gxk+G6TOPdANLU+jg6MBfp4Jq7k3/cjBxvXqF8E+ak/Vd5nV9ZBJfkII0g8XrW6cazpGmEgBMET7Z5tbcwhqARNNg9yMMi0FzU9wHCs3JRqemroMzoEtfB+Up34hxDuI+YXhaxpOMZ0jTKQAGITaJNTpw6rPpl4sgKKzIU/6/mBsA/AUCPMhP3MhxPvJUsABkp0AB2D/LHNrIaAuhoNSedb3GaEMwMWmYwghAmmk6QBhIz0A/dBRUzWLHboCoFmQLn4hhAiktekNVhS3MveK9AD0Yf8ks+o5DHyPHZpkOo8QQohDmzZsbBHQvxVEQgqAPh3VU3UpM91lOocQQoj+SSBP5gYNgHRn94WzYmc+IYSIDKu3N246Q5hIAdAXTcWmIwghhOi/d444F/0jBUAfGJRvOoMQQgjhFSkA+sJcZDqCEEKI/os5rmM6Q5hIAdAXJXMAhBAiTPbFrB7TGcJECoA+EEMmkwghRIg0D9skSwAHQAqAPjDJVrNCCBEiqanLIEMAAyAFQB8USQ+AEEKEyHbTAcJGCoA+aEgBIIQQ4cG7TCcIGykA+sIkQwBCCBEWGk2mI4SNFABCCCHCT3Gj6QhhIwWAEEKI0GOiTaYzhI0UAEIIIULPZX7NdIawkQJACCFE2GmdbnvddIiwkQJACCFEuBE3ltbt7DYdI2zk5KS+EKfAZDqFENksBWD7geVdndBoBVG7Vtxugbs0qJO07oGtWom4202jmyx0ataOS9wLfHhv+HdOi7OY4oqU7WokbEI+FJWQRkIDIxW4UEONIugSMJUqwkjNVA7I9uCBpekF0xHCSAqAvjCkmhTCOxrAFoA3g2kzKf2WBjUTuMmF3k69urmkbnOn6ZDv9VayPJFv2aPJik9gUIUCl4NVJZgnMNFkSIFgDCv+o+kMYSSPuH3omFv9eyY62XQOIUKNsY3Amxm0AeA3OIYNae28viV3U1PUtm1trhlbkpvOm6zAk1lZxynNU5joeABytLjHiPmFfU7rGTIMMDBSAPSh/aLq5wCabjqHECGhAX4FTK+Spf/mungVjrM+aE/xJrTMr5yYw/YnofFxAFOlKPCGFAEDJwVAH9ovqn4SoDNN5xAikIg3ENPLUPrPaY2X96Z71h9Z15wyHSsMapNQp+dUHaOAU9mhz0DRqQBKTeeKAikCBkYKgD60z6taA1ZzTOcQIgA0wK8Q4wW28YcUnN+NXrmpxXSoKNk9b+JkS9PJUPQ5sJoBmU8waFIE9J8UAH1omzfpbmJ83XQOIYwg3kAazyDGz7p7nRelK98/tUmo6bGqqTHCLGg6nYmmQZZsDxCv60rvOUt6pQ5NCoA+tF9UdROgvms6hxA+6Qb4N2D9NHN6bfHDTU2mA4n9WpMTCq147BxmXADQLAByUFm/8GMb8xuSUZtsmklSAPShfW71t0F0i+kcQniGsY0VHiPoRzfmNf5OPiiD761keSJ/WN4M5dAFDJwPmUx4aJofWes2fGl2HbTpKEEkBUAf2uZVf4WYHjCdQ4iM2r8sr9YFP/obp/FF+WAMr/pFsCfurT4PaXwJis6G9AwcHOP+ojUbLjEdI4ikAOhDR03VLHbU06ZzCJEBrUx4mLVeIzf9aGpNTiikeOxCYsyT5csfRqSvH7668d9N5wgaKQD6sOuiqhNtqJdM5xBikDTAj7ON5ZsSDU9J9372aJlfOTGurYWAuhiyvPBf2P1a0Zo3lpmOESRSAPRhV01Vme2oraZzCDFATUR6edrC/SNXNG4zHUaYU5uEOn1Y9dnk4GsHJg9m+0oCDYu/VLSy4RHTQYJCCoA+1C+CPbF7Utp0DiH6h9exjTt+vbfhCeniFx/UNqeiQlHON5noYmT3xMGUA/2ZkQ81vmw6SBBIAXAI7RdN2gHpQhPBlQJjlaucpSNWb5Sz0MVhtSSPyM/JKf43ZrocTJNM5zGkhXXqJFnqKgXAIbVfVP1ngKaaziHEB7QS6Tv2Kvde2ZFPDMZ7hgd+kJWfccQbdG/6pGzf4EoKgENon1NdB0UXms4hBIAD6/b51nRv6/2yzanIlPZ5VdPB9L3sWz3A69amG07P5iGzbJ8UckjaQpPpDEKAsY2UvqLL6a4sXt1wu9z8RSYVrW5cV/RQw2kO9EkAP2U6j39o+ky7+jbTKUySHoBDaJ971CKQ9RPTOUTWagXzLV3OnjtlT3Phl/1LoOn6bDkNlYgXDF/dsMp0DhOkADiE/V1j6jnTOUTWSQF6iU47t2T7GKUwp3Vu1cmK6IYsGBrI2pUBUgAcguwFIPxGwIq0ra+TNfwiKNrnVU1XoKWaaYrpLJ5hbHNi+hPZ9ncnBcBhtF80aS9kj23hOa53wJdn41OICL7aJNTp8ep/I003glBmOo8XiPmFNwoaPpdNu2bKJMDDUMSNpjOISGtl4q+uTTecJDd/EVSz66CLVzf8tMvpriTS1wOI3ERUJjr5qK7qW03n8JP0ABxGx0WTHmSgxnQOEUGM+7tjXd8pX7G11XQUIQZiV01Vme3iNrCaYzpLxlmczJbtgqUAOIz2udXfBtEtpnOISGkC6a8WrW5cZzqIEEPRPq9qOkB3R2xXwe5elf5Y6apNG00H8ZoMARwGxXi96QwiMjQx396V7j5abv4iCopWN65b29vwUSZejOgMC+Qn2H70rWR55Od+SQ/AYchKAJEhTZr1gpI1jS+YDiKEF9rmVFSQyrk7KvsHMOHHxas3XG46h5ekAOgHORRIDAnj/l5n92LZwU9kg/YF1RfCpbsRgc9MsvUZw1c0PmM6h1dkCKBf+EXTCUQotbLN5xat2XCJ3PxFtiha2fCITvceRcAK01mGih314PYFlaEvZPoiBUA/EPFfTWcQYcPrHFsfW7yi4XHTSYTwW0nd5s7hD234Mtt8LoAwn1hZmnDt5aZDeEUKgP6wIOuzRX9pIn392nTD6dm2q5gQH1S8ouHxlJU+FppDvKyOzmybV32V6RRekDkA/dCanFCoYvE2SMEkDq2VbD0vymOGQgxWx7zq+cx0D4B801kGIdWr0sdGbWmg3ND6oaRuc6cifs10DhFcing969TH5eYvxMENX92wqlelPwZwveksg5DIce3ltclo3TMj9c14yQXJ8i1xcJofSfW2frr44aYm01GECLLSVZs2bsxv+BSgfwhAm84zEEx08gy7+lumc2SSDAH004Huq5Wmc4hgIdLXD1/d+O+mcwgRNgeOW1+DcC0XTLnkfHzE6o2vmw6SCdID0E9pi2XnNvFeKViclJu/EINTtLpxnWPrjxFzmHpXExZbD0ZlKCAS34QfRq5o3AbiDaZziEBo1axPz5YDQ4TwysgVjdveKGj4HDHfbjpL/9HUmTlVXzedIhOkABgA0pAJXtmOsc0l5xTZ0leIzJi6DM7wNQ2LYXESITlPgLW6eVdNVZnpHEMlBcAA6Bh+azqDMIh4gxPTn4jK+J8QQVK0suERVvrTAJpMZ+mHfNuhu02HGCopAAYgvbd1HYCU6RzCBK7vtro/LZv7COGd4lWN67vtro8DYZhzRee11VSfYzrFUEgBMAD793OXcwGyDTG/oNPp08pXbG01nUWIqCtfsbV1Y37DTDDuN53lcMihO8J8bLAUAAPEhF+ZziD8Q8wv7HNazyip29xpOosQ2WLqMjhFazZcwsSLEez9AioKYrk/MB1isKQAGKA0OU+YziD88c7NX07yE8KM4tUNt7PNX0Sgh17V1S3zKyeaTjEYUgAMUOmqTRsV8XrTOYS35OYvRDAUr2h43IH+DICgDsEl4tq+1XSIwZACYBAY/KjpDMJLXC83fyGCY+RDjS/3qvRJCOwKATqvo6ZqlukUAyUFwCBowmOmMwhvKOL1Op0+TW7+QgRL6apNG1NW+qSg9sCyS0vDtkNgqMIGRfGqxvWyK2AkNfUo53SZ8CdEMI1euanF6U2fEsjtg5kmzbCPuth0jIGQAmCQCLzGdAaRUS29Kn366JWbWkwHEUL0raRuc2ens+d0gJ8yneVDyLqxJXlEvukY/SUFwCA50LIPfHR0s9Knl67atNF0ECHE4R1Z15zamN9wLjQH7XO4NB4rvs50iP6SAmCQ9m8Hy/Wmc4gh02TrZPGqxkCOKwohDm7qMjhr3YYvEbDCdJb3U1eG5ZwAKQCGgBQ/aDqDGCJ2Lxu+olEOeRIihGbXQT+b3rAwYEVAvuWq75kO0R9SAAxBl9rzEAK9QYU4FGK+vWjNG8tM5xBCDF4QiwBifKVtTkWF6RyHIwXAEJSv2NoKzbIzYCjxumedhmtMpxBCDF0Ai4CEUokbTIc4HDIdIOza51VNB9FzpnOI/iOFje7e9MdluZ8Q0VKbhJoRq34UCueZzgKCdrV7bJCPD5cegCFa29v4PDQ1mc4h+klTt9Z8gdz8hYie2XXQG/MbktAwf5wwQ1lQgT4oSAqAIZpdBw3me0znEP1DxJfJjH8homvqMji96dZzoWF+lZai2UE+KEgKgAxI2c5/Q5NMBgw4Zvrx8NUNq0znEEJ4q7RuZ3e33T0TDLM7tjJU3I19x2iGQ5ACIANGr9zUQkCt6Ryib4qxflPehm+aziGE8Ef5iq2tjsWnGR+iJcwP6r4AMgkwQ9rmV01Riv5mOof4MHaou1elPyY7/QmRfXbPmzjZjqs/wKUiUxlcFz8qWd1wran2+yI9ABlSvKpxPTsBmHgiPoSIL5ObvxDZacTqja+7KXyBHXPDtFacLw7iGQFSAGQQ2Xyr6Qzi/djlh2XcX4jsVrKm8QVYvIAZ2kgAl4pi8ZLAnRQoBUAGDV/R+Ay5kBnmAcEONele52umcwghzCta2fAIHBg7qIeYvlmbDNY9N1BhooAB6QUIAGZokP6qrPcXQryjaE3Df3Ka7jfRNtlcMSNRfb6JtvsiBUCGPdvb8BAAGW82jDXdW7S6UeZkCCHeZ2PBhssQ0y+YaJviOlArkaQAyLDZddBwEfg9oCNuY7p3d2DX3gohzJm6DE5XuudcmHhQS6uT2+ZXTfG93T5IAeAB6QUwi13+Wmndzm7TOYQQwVS+Ymur1nwBO+T/5wSrwMxLkn0APNK+oPpCsrjOdI6s06tWDH9ow5dNxxBCBJ+Rz2lCu9vtfCQI85OkB8Aja1MNP6c0yYoAP8V4V5fdtdh0DCFEOBStbHgEMdzua6OMIivHrvG1zT5IAeCR2XXQroVAnwQVOT1qcfmKra2mYwghwuPZ9sZrYLGvkwKJ6RI/2+uLDAF4rP2i6ucoztNN54g8i18Y/sAbp5iOIYQIn+0LKkuHJdQ/kKaRfrWpHRxn+mRS6QHwGCuWLmmvxdhxUhyYiTVCiHAZvXJTC/fQl3xtNACTAaUHwAftcyfdR7lu4LaBjAxFtw+/r1EKLTEotUmoacPGFuX1xgoBIG1btsUUV6Rszdp55+tc4l6lrJ4U9qS2J7Z2Tl0Gp++rijDqmFf1f5Fgf5Zxa2rv7O4Zc2Rds7EzCqQA8MH2BZWlw2yrAYqNnUYVWQq73Ha3MggzakXwtCSPyI+PKaxCmz2BNcpVLn+EezCaElyOtBoNi0cO+u9SwYFD3XBpF2J6OxFa2OJu7lLNpPC2VrSFipzm7vZUk8xNCYfaJNTMwqP+B8DJfrTHvSpZtLLhET/aOhgpAHzSNq/6KpXQS03niBqdUl8tXt3wU9M5hHkt8ysn5rD9SeTyx3kPTbHy9EStMc50LgCApnYofg02b0a32qQtehW9+9YXP9zUZDqaeL9dNVVlsRz+GzS8nw8Q008Nv3fTWZ630wcpAHxSm4SaFa/+Kyd0YHaBCj3FG55t3/jR2XWGTvgSxryVLE8UxHOnEXAyM51EOTwtlD1s7xQGiuo5RX/g9L56KQrMa6upPkfF9C89b0jB6drXM8pUD5EUAD7adVHVibFh/JLpHJGRpjOGr2h8xnQM4b3aJNTn7applsJ0JPh0KHwSGrbpXF5QCluYUc8p+q3Det2I1RtfN50pG/k1d4t78LWiNW8s87qdg5ECwGcdl1QthearTOcIPcNdZ8J7Lckj8uOJklmU634Bms70pUs2iBR2cQ/9hkG/3qecJ0av3NRiOlI2aEkekZ8zrOSviOmJHjdlbAmzFAA+a0kekT+sqOgfgRmbDCnO0x8vunPTK6ZziMx6K1meKEjkna1y9FwmnBPVp/wheoGGuU+67fZTpteRR13r3KqTrXz+rdfvw3Saxo5c0bjNyzYORgoAA9rnVU2nBD9nOkdYEeHnhfe/cYHpHCJz2udVTad8/WX0qnNCOZZviuIN6FFrHOhHZKjAG7702u6jK4avavwvT9s4CCkADJGhgEFScJwePk4+7MKvuWZsSZ6bX6Ny3a9B0yTTeULvQDGQtnC/iafJqHorWZ4oLEr81eP3qJFhACkADHn3TUXywTcgxCuG/2SjnPYXYrvnTZxs5+M7BJzPTPmm80QOw4Gl1/Iee3lXas8TJjeaiYp3hwLIo6EAhrM3pcf6Pb9DCgCDds+bODmWj5fkQ7CfGM6+vfro0lWbNpqOIgaufV7VdCpwr4FWZ5rOkjUYuxB37tilPcgAACAASURBVE13xe6RXoGh6bikainIu15b7vJ/NYAUAIZ1Xl5Zw2n1oOkcoSBP/6HUUVM1CzH+Hix/dlcTB8FwiPG4s4eWlqxp9PXku6h4dwI3eTSBW/m/skkOAzKMuyxZ0tMfDMfpxi2mY4j+a59XNb3jq0f9Hgl+Wm7+hhFsVjjfKuDft19U/ef2BdUX1ibl838gSut2djv71BVeXZ+YTn0rWZ7w6voHI28A04bpuaYjhAExHpeJf+HQNr9qSsellU9SHj8nN/7goXw9lYbpuplFE//ReXllTf0iWWrZX8UrGh4njZ97cW1mys8fljfDi2v3RQoAg95KlicION90jjDQufom0xnEoW1fUFnaccWEe9Qw/ouM84cA0SROqwer+ahNbfOqvyI9Av3jdqevIeJuL66thqfP8OK6fbbnZ2Pi/QoSeWfLBMB+cPGCbPoTXLVJqLZ51Vfl5tIm7LMu9WymtPCEJoxTefqBmUUT/9Exr3q+FAKHVvxwUxNi3jyQqJTla+Esv2iDVI50//dLmuTpP6Dar6w8YdaYCS+pPL1UitmQI5qEPL1yZtHEf3TUVM0yHSfIOnb03g7mDZm+riaMa5lf6fXWw++SAsCQt5LlCVjs63hPKDFvkAN/guetZHmi45KqpbRXvcQpa6rpPCKDiCYhwU93XFr55O55EyebjhNER9Y1p7BPLfbi2jmwfCu+pKvOkIJE3tlMbj6ITUcJNLL4ZtMZxPvtuqjqxFiefhCWlk2sIo3OtHNpRscVE+7v6tj3PVNH1gbV8BWNz3RcWvkUQJntts/XZwDwZVtg6QEwhHLdL5jOEHgu7epo2VdrOobYr34R7I7Lx98Yy+M/wILc/LOBxTbS6tKCnNyGzssra0zHCRqni66FS04mr0lMp/o1D0MKAAPqF8GW2f/9EHfulW1Mg6FtTkVFVWLCH+Fa34fF0nOYbSweyS492PHVo34vwwL/MmL1xteRcO/P5DWZkD9jTOXxmbxmX6QAMOCoVNXnmSATpg7FJSfdFbvHdAwBtNVUn6MKYn/mXiVj/dkuxifbufS3jsvH3yj7B+y3t52uJ0ZGlwWS7Z6ayev1RQoAE4Y755qOEHiWXit7l5tVm4TquKRqqcp1fwmLR5rOIwLCYhuu9f2qxIQ/tl9ZeYLpOKaNXrmpJePLAnus0zN6vT5IAWCA32s9Q6nHust0hGzWXDO2ZOaIyl/B0nJktTgo7lVTaa96SXoDgNSOrv+CS7sydkFXnZixax2CHAbks7b5VVOsAv030zmCjBza8nT7G+Nn10GbzpKNds+bODlnhH5Sp1WF6SwiJGK6PtVKc7P5pM6uxRWXcsrO2LBlqouP8vrnKT0APrOKHHn6Pwwdd1bIzd+MjpqqWbF8vCQ3fzEgaTU1kUd/zeaVAg17mu5XMd2UqeslhmNapq7VFykAfMZ7LV+PewwjvZsfMJ0hG3VeXllDefppKJmgKgZBIR+aHuz42sQHW5JHZN17aOoyONql6zN1PVb8qUxdqy9SAPiouWZsCcVZTkc7BGZ+qvjhpibTObJN5zcm/B9oetB0DhF+pFCTUzT8z9m4XPCZlk2r2EFGtggmguerbrJ64obf8jl/OlRG94yIHAJ+ZjpDtum4pGop2L0KSnalFJlBcUyKDeM/tNVUf7l4RcPjpvP4ZXYddOflfDOAIRfTpHBM/SLYU5fBs5uG9AD4SHb/OwyHulMtnZ6ctS0+rDYJ1XHFhHso7spMf5F5LhVZBc4vOy4ff2M2nTDYmN70kLK4aajX4TQlJiYqp2QgUp+y5pcSBJTQcvjPITDw89K6nZ6csy3erzYJNbNk4nLSdKnpLCLaCOr7M0dU/ipb5gVMXQaHLX1LJq6lXByTiev0eX0vLy7+Zfe8iZPh0GjTOYLMyuuVMWgfvHvztzlrZ2wLf5GFMxPlBS/tqqkqM53FD+3Nzn/D5u1DvY7XEwGlAPCJPcqRp/9DsXn7U29ted50jGwwc/SEu+XmL3zXS5Pjxc5fsmH3wCPrmlNwcceQL9RjSQ9AJPi0tWNYscZjsvbfe53XjL9Nuv2FMQ6NthT/oaOmyrcz701xduDHsLh9KNegPFcKgLCrTUJRnD3f1CHMrJhTZzpD1HV+Y8L/QUpdbTqHyG6cpgQNd5+O+qZBJXWbOxHjnw7pIi4VeTlsIssAfTBjTOXxYBRJudUHJd3/Xuu8vLIGhJtl828RGAoPdlxdUTJ8SdPtpqN4pXdn7Lb4cHdIRXdiZGoSAE8ORpNbkg+UZhn/PwTp/vdW69yqkynGPzGdQ4gPorS1tOPy8TeazuGVkSsat8F2h7S0mVlVZSrPB0kB4AN26BTTGQKtw/6l6QhR1TK/cqJ9hPMrdilhOosQB0NKfT/KRQAS+rah/HNWdFSmonyQFAA+kPH/QyBub/1c4/OmY0RRS/KI/MQR/EswFZnOIsShRLkIKLx5y4sgrh/sv+c9alIm87yXFAAe2z1v4mT5AD4ES68bvxAp0zGiKFGe9yAcyrr92EU4kVLf77xm/JCelgPLpbsG+09pGFdkMMn7yCRAj8VLnVNZS53Vp15Luv89sP9wH5wv+/uLUHHo6o7Lx/cMv/vNH5iOkkkdLftqh4+J3wHCgB8GiTGhNgnlxTwpuTN5TPfYnh/pGGY9nXjGdIao6bxu3DRYuNl0DiEGg2z6fsfVFZE6n+LIuubUYJcEMiMxfViVJ7vISgHgMcrVnh/pGFqM+tErN7WYjhElzTVjS9Qee7XpHEFEhJRiNEHhdSi8Dkb9uy+F1wFsB2NIG7eIzCBXLY3aPgHp7dYDg/238bGpigxGeZcMAXioNTmhEBoyBtsHdlme/jOscETsPq1RYTqHKYrRpC39CvfS6wT1hspJN/e0xLZgX+f2/h40VZuEmjZsbFFuKZXHtRqp98XKGfooONY4ytGTAUwcTFeuGCCbH+y6rry74ObmSJwQOmL1xtc7r5xQD8LAHwo7YxMBvJjpTFIAeCh+pDNVu/Ij7gsVuk+bzhAlnZdX1kDz+aZz+IUIKdj6dyD6Pbnui+273FfLV2xtHep194+1bm0F0Oe1dtVUlcWAKShIf1oN4xO5V50oRYEH9sZXd1437rTCm7dk/OZnhEt3weaBH3pG7MlugHJ38pDutU+EZTpFQDHan9m45U+mY0TFrpqqMljO0A8fCTjFaNIx/rli98mdx2550dQKkpErGrdh/+5szwD7ew1mjKk8nmz3VGKcQqzOZIbsvTBEzEigx360ZX7lKaWrNm00nWeoUi2dP0+MKRj4ZMAcPsKLPFIAeCmmPwFZAXBwll4nu/9lTk5p73JOq6g+gW6HzQ/ptFpdeOemV0yHOZj97+VNrwB4BcDt9YtgT8ofd6om6yyVpvM1Ze+wTAaMzi3hX29fUHlS2OcMldbt7O78Tt7jSKmBzW/Q3iwFlALAQ8pVJ2jpATgoJvzedIao6Ly8soZdnhG9Kb3655RwVj+9sTl0W0VPXQYH2LIOwDoA17RfWXmCiul5cOgiKHgyozvKNFCRW8xPvrkcp4R+3xClfwI1sAKA4hjpRRQ5GsQjzTVjSwpH5Ow2nSOoHKv3uJIfNa83nSPsti+oLM0t5gZY0Rh/JkZKu/jvfW10WxS6fD+oNgl15pHjPqtj6su0T81mkmGCgWAH9w6/a/NlpnMMVfeVE97U1oB6hV4vXLr5o5nOEblnhqAoGmkdbzpDYGlsl5t/ZuSWubdG4eZPjBQUL9mzmz4y/K7Nl0Xx5g/sHyrIX7JlXeEtTV/uaN03lkkvVi6aTOcKC7JxadfiiktN5xgqHeOBrWzQKPEihxQAHnGhpoAY8jrIS+lozOg1rPO6cdOQphrjv88hvIiRYgf37tlNHym87c1rwj7GOxDlK7a2Dl/SdPtTb2+upETvBRTXvzP9+wjFi9XSzuvGhfp8FYfSDw7oe1YYXZvM/P1aCgCPUAwfM50hqGT8f+hqk1DYY4d61j8pXrt3Fx07/K7Nl2XTjf+DZtdBF9zc/POCW5o+gxz306R4relMQcaKE+ixH91VU+XJ0jg/lPyoeT2YXu/3PyDGtGFjM97TJwWAV/Yq2QCoD+xYvzOdIexmlVbOh83h3GXSpe2Uk76g4EdNM6Pa1T9YhTdvebHgR00zkeN+mmIsfyd9sXh0zpjeNV48FfuFewc2DBDXiYwPA4T2hxdktUkoUjjGdI4gIk2pjalNMv4/BC3JI/Jh8y2mcwwGp+leZxuqo7K7m1cKb97yYsEtTZ9RcE8b0JNiFuE0nTqzdPwNpnMMljssXTeQr4+XoDDTGaQA8MBncyonsGKZ3XswOfrl/UukxGANq8i/ChaHaymZS9sV3NOG37X5spK6zZ2m44RF/pIt655p3nwsMV9GMZZzCj6AcvD97qvHTTedYzAGOgxg22kZAgiDYUfum2I6Q1CxQ/WmM4RZc83YEii+xnSOAWH+eU8rHZe/ZMs601HCaHYddMHSpns73k5XIsYrTOcJGu3aq5trxnoyS95rHHf73RPGOTrjBYBsBOQB7opXUQ6bjhFM8fQfTEcIs4Ix9mI4VERh2cFD4QcFtzb9P9MxouDAOQdf7r563INsq/vg0gTTmQLB5tGFI2L3AbjAdJSB4r32L1RMf79fX9uZk5/p9qUHwAt5+mjTEYJq71s5Mv4/SM01Y0sU6Bumc/SLze3E7mkFt74pN/8My1+yZV37m85HdS/dazpLUJCi88N4fHDRnZteoTQ19edrKe7mZrp9KQA8QJB9vw/K5naZ9T147zz9m85xWBZv7m22Py1d/t45sq45NfyuzZcRu6exQ9tN5wkCynfv6FkyInRLA11Gv45F9+KsDykAPMApVWU6Q0DJ0/8gtSSPyA/D0z+nqX7P29anRqzeKDPXfZC/ZMu6nlY6DiR7B8ChIndbwXLTMQbKijn9Wg3AeW5eptuWOQAZ1pqcUEg5OlwztH0iEwAHL+fIvIvBKIIV4LklGmtTb3dfMLpuZ7fpKNlk9MpNLbVJnHFGxfjvgvhG03kMm9F5eWVN4d2bQjNZcuexW14c+bcJKcT1IVeOkaNkCCDo1BiaaDpDYKXU30xHCKPaJJSycYXpHIeksXbXR5vOLZWbvxGz66ALbn3z/6nhzhkgZPVyQcp37wjTqoDxC5Fi0k8d7usoR+YABJ6Vt6/CdIag0hZeM50hjM46vnwGgMDO+OY0ft7Q2XRW6I9pjYC87zU/s3er9QkAm01nMYZRVDgmttR0jIEg4NeH+xp2pQcg+JyYbAHch66398m48CDoNnux6Qx90ljbuKfpS7K5U3CUrtq0sWN7+hMgZO1WwsSoCdMGQXt3Wr857Bf1QpYBBl7MHWs6QkBtPrKuWZ4QB6htTkUFFGaYznFQhN/t/eeeC+TmHzzlK7a27prUNJPTyNotlzXbd9UvCsc8twOrow7Za0OWFADB16sC21VrlIYs/xsE9RH+qukMfdjc8Xb6izLmH1zjFyL1THNTErbOyv0CKKYnH5VfEfiVM++y9SFXcnCvksOAgo5dVW46QxAxk4z/D4Jiush0hg8htHNZ7xkHdqYTATa7Drrgh1su08RZuSGTiuH6sEwIJBu+75IqBUCGUVyHbiMKP5DmN0xnCJvO68ZNQ9Am/ylAFTpzC6/a1mg6iui/4bf88wdZWQQwioaXWzeZjtEf7U3uU7C4z+E0yncyvoxaCoAMaZlfObHzOxUPghH8ndoMINJywxggIiwwneFDXPpB3vea+7VzmQiW7C0C6OLO28sCvzlb+Yqtrdyr7jzo/yS0790Suy3TbYZigkSQtc2pqLA+ghtIOReByUZYDmnxmSrfs8F0hjCpTULBVXMCVaI7WFvwI9nbP8yG3/LPH3R9d9xIaHWp6Sy+YbLxz/jNCMFhQc9sefPaWePGg+L6SjDtvz9rbGalF5Suasr4PCq5XQ1Sc83YkuHl1k1guvjdX5Q4OGLn6Y3/zJldB206Slh0Xz1uOsfVc6ZzvIvRvmebVT165aYW01HE0NQmoWZNqFhOhNAdnjMUbo/18aI7N71iOkd/NNeMLSkca01y0rr7N/9sfs2rz04pAAaoNgk188iKK1UM14Oku79fNDYX/GdTpekYYdL13XH3BOopjZwLCm5uztolZVFTvwh2dWHFk7ADusTUCw7WFvyoaabpGEESpA7GwOu+etz0Mz965N9VHEvl5j8AsgRwwMjCeaYzvIMZK+TmHy1Tl8FJ/1MlKeFmz+ZcNmaEaXMgP0gB0A/bF1SWdi6ueJTj6jlOWbLT30DFdfZuSzoIrd8qn8JpFYgDpSimt3e+nQ7uToRi0ErqNnemN1hnUUxnzXHCHFPXm84QJFIAHEbX4opL88rcBsrB+aazhFba2mo6QphY2g7OUwrhWlnvH13FDzc1YQ/mgfpefhYphFMPLK8VkAKgTy3zKyd2fafif5CDe6S7f2homNtkOkOYKIUzTGcAADB+l//vW1aZjiG8lb9kyzq9j641ncMvlJZegHfIJMCD6FpccSniuBk2y40/A2gvn5a/ZMs60znC4M3lSIxs/EgXlPklum6XHZpZ02LoOhdXPEq5nBU9nel97nElP2pebzqHadID8B7bF1SWdn2r4lnk8j1y88+cXqV3mc4QFiMax50QhJs/O7RCbv7ZxWlWC5GmrJivY1v2NaYzBIEUAAfsual8Vn5F+m/I4exZFuOTWImzzXSGsCDHMj/+r+Ho8r3STZplSuo2d7KlF0BH/3RHUnxRz5IRWb9te9YXALVJqI7vfORG3WM9zZoCMfM6ahqatrebzhAWlO982nQGEN9fdMWOJtMxhP8Kb97yotb4D9M5PKdgp3fkX2Y6hmlZXQD0LBlRdsaEit8qG983nSWyHGqX8+IHwKHjjbav4Tib1S1GMwij3mj75w0U05HfH8CK88VvLkfCdA6TsrYA6Lxu3DTdlvcXxPhUECAvj14MWULWTz1LRpQx02iTvy/W9FDxw01NPny7IqCmLoPjtMYXGP/s8Pq9zjT6iDfHXZjBH13oZGUB0LW44lIC/Q+zdPl7jXLdlOkMYeHuHPZJ0xkc18n4iWMifIru3PQKNN9rOofnLL7CdASTsqoAqF8Eu+u74+5BHt8Dy/xM62zAey1ZAdBPWlsfMxogTb+TpVHiHXvf2HstEUd6l0BOqxNbv1U+xXQOU7KmAGhNTiisLq54DoqCc8BKFqBct8d0hrCwh7mTTLZPOfo+k+2LYCmt29kNQuQ3CLI59mXTGUzJigKgZ8mIsvhH039EjE81nSXbEHO36QxhwSBj50wQ8fad47c8Yqp9EUz5/75lFcX0y6ZzeEnluhfVL8rOHuHIFwCt3yqfotvy/sKOkkN8RGDVJqEATDDVPrt4bPxCyHwN8SE6RZE+DIqZRlePKD/HdA4TIl31dF43bppK8JNwUUTEpuNkJXevLUMA/TDj1FHjsJMSpMy8T6kk/YCRhkXgFd685cXuG458Bi7NMp3FK2RjLoCsO/I6sj0Ae24qn6Vy+Dm4JFv6isBT23LM7UrG2J539dv1xtoXgdfbxd8xncFLDDq7NTmh0HQOv0WyAOi6rvx8TtMvoCmrN3kIArK09AD0g4qZ6/7XPdZDptoW4VDyo+b1pHR054hoSsSPdrJuGCByBUDXdeXnU0w9Kjd/ESa816ow1njcfdRY2yI8Ct1o7xBp8TzTEfwWqQKg67ry8ymHVpvOIf6FXZVrOkMoxNyxRtq1uL1x95ZIz/IWmZF39dv1sPgZ0zk8w/hsc83YEtMx/BSZAuDdm788+QeKNcyRAqAfVFyPNNT0n+SsBtFvHXSr6Qie0ZQoqrDONB3DT5EoAPbcVD5Lbv4izPReu9RIwznuc0baFaGUv2TLOiiO7EFBpPS5pjP4KfTLADuvGzeN0/wLgBLRKGdENqJh7sj9p5T43G6cn/e9URFumm6GwkrTMbzARJ+vXwQ7W3rFQn3LbP1W+RSV4CcBefIXIeeSgbFHTj35x7df8b9dEWY9/7v3MRC3m87hCaaiSfnjsmbH2NAWAD1LRpTFh6lnwbLOP8iYKN90hlCw2f8ilrB+dh207+2KUCut29nN++hh0zk8c4Qz03QEv4SyAGhNTijUnbm/hgU5zldEA8P3AoD3kTz9i0FRIyO8c+Q+62zTEfwSugKgfhHs+DHpn4FoMgiQV8BfQFYtqxk0ooTvv5tC5+/+fHMiavbvHMmvG/988eRFk7t+ONrUqhxfha4AqB457i4guntSRw5DhgAO48BBQL6jFnuDiXZFNFC+XmM6g2e67KyYBxCqVQBd/1H2dUrzpaZziAHQMLfHfUhMKIaCgUOAVHmPFABi0Fyba5XiG03n8ASp05EFhwOFpgeg++px02mffbfpHGKAFIpMPeGGxeY2AxPxXKSe+OPu7b63KyKj8KptjXARyT0BKM5Z0QMQig/m9rtGVWA4P2riKUkM3RkfGy3zAA7B0Ez8zbICQAxZjvuE6QiesJAV8wACXwC8uRwJuzX+MyjIcr+Q4lwlBcDhuEj52t4wd5ev7YlI0p32L01n8Ipie6rpDF4LfAFQuqP8NiicaDqHGDy1xS43nSHwyN8CgPaqFj/bE9HUuHvLy9CI5KZArPTnTGfwWqALgJ6lo+Zwmr5uOocYonyZCHhYDvlbAOSxvz0OIpIObJn7J9M5PNFrTTEdwWuBLQDa7xpVoTvj95jOITIg15ENmw7H4lY/m3PbrG4/2xMRFt0DpT5pOoDXAlkA1C+CbbfGfwYLReY3hZDXUF8ENf7Dv2XxPsPcXb7+TgqcTr++NRFtFOfnTX/GePKyUNR+16iKTP6sgiaQBcCk8WU3wZJx/6jgfTTBdIagkzF5EVYtxW+/BsfnSaw+sbbFTjCdwUuBKwA6rxs3Ddr6tvHqT16ZezHGQRxaAi2+/k6EyJDxC5ECYb3xzxkPXmoET87sTytYAlUAvJUsT6gcvs90DpFx0gNwGAz9pukMQgwW5XC96Qye6KbjTEfwUqAKgJKP4zbEEOmKKyvFkOhZMkJWAhyCynGbTWcQYrA09D9MZ/ACgyJ9PwrMWQCd142bxlp/HSS7/UWRbs6bBOzeZjpHUDktOVtUgX8b8xEpOaRJZAx32K+Sj+9fv1CCJ9YmoaK6a2YgegDeXA7p+o84LnUmmc4QZJ1bXX8P5kmh1Nf2RKT5/v71CWuKzzh1VGTnMAWiADhie9kNiEd7skW2U1AfNZ0hyMpXbG0lm31bCcDDtBQAImPKV2xtRZoiuSNgrDMW2YcX4wVA5+1lVUR0lekcwltM+hjTGYKOmX17ilIxjuxTjTCm0XQAL2hLR3YSs/ECQO3DfawpbjqH8BYpHG86Q9ARq9f8aot7VVn9ouDMARKR4Otuln4hxkdMZ/CK0QKgZ+moOXBVVpy7nO04rQqjvqvWUHGP+qNvbWmKV00ui+yTjfAf5fBm0xm8QPtUZP9OjD0BtCSPyOe0fQcZ74MQfjmwq1aT6RxBpUucl62Uf38QtEMdg4h22woDbH6bnOjtMsVEkR0uM3b7zT0h9gNokolIWYQK9UmmMwTZM3/YthGW9m2P/qjvcib8pR1/D7TyCw3TFaYzeMVIAdCzZESZTPzLQir6p2sNxew6aO6xXvSrPWXrU/xqS0Qf9djRPGBKo8h0BK+Y6QFwE7cAMvEv25DC8bVJ8xNPA83Ho1V1mj4pvw+RKZzWPaYzeIPiXT8cPdJ0Ci/4Pgdgz5IxU7mX5suOf1lIU+HnP1J+DNC83nSUoKI4P4+0T38bmgrP+tSYE1D3djT3cRe+UvnoiernOueqEgC7TOfINN+rf6VwU1TfJOLwYiP1yaYzBNmTf3z7FRD8OxpYq1m+tSUize1W0RwCAGBpLjSdwQu+FgBdS0d/Vu9TM/xsUwSLZdGnTGcIstl10ERY61d77PLpfrUlRGjttSI5BOBrAUC96gY/2xPBwwwpAA+De2m1X22RolPlpEYhDo1y05GcCOhbAdC1dPRnCSSb/mQ7Rmnn7WVVpmMEWeureB6K/elO1YDbm3OeL20JEVJsRfP0TN8mAVKvukHmGwsAoBQ+D9mApk9H1jWnek4c+zgrzPejPSvGlwD4sR9tieii0t44HMt0DE9wD0kPwGB1LR39WVLy9C/2swpcGXc+DD+HATitju+6p1gOaxJDonrshOkMXiGbIvm9+VIA2ETX+dGOCAfusabLQTSH9uSrzWvB/q0GUB15l/nVloimqI6TR5nnBcCeJWOm6rTM/BfvRYXVR4+W5YCHMLsOml3+b98atPT8tuVF8gEuBi2q4+RR5nkBQK76JgiQl7ze+1L77CTEITn57j3+/U6oMLYj92K/vjcRPbqH4qY/Vzx7RZSnBUDPkhFl7GK2l22IcKK4e6bpDEFXdMWOJmVr3/YEIEXXvpUsj+RYp/CesqnEdAYxMJ4WAHpfzjdhQ/b8Fx/CWlXsWTJmqukcQaf3WEt9a0yhtPjj+hu+tSeixaExpiOIgfGsAKhfBJss+jevri8iQLahPay87zU/Q7Z+1a/2SNG1LXdDxnLFgJEVze1yAYAdTpnO4AXPCoDJR4+6EAqlXl1fhB/Z+gLTGUKB9S2+taVQmttZ9gPf2hORoTWPM51BDIxnS7GI1EK25NAf0TdmOr7rnuJjCi5re810liB74sUdtWd/aszNTFThR3sqzld23l72QOFV22SzJtFvKsbjOKoT5hzTAbzhSQ9Az5IRZZpJlv6Jw6L2YQtMZwi62XXQIO3bXhrsUiIGvsuv9kQ0sBvdSYAM9JjO4AVPCgDWia94cV0RPSqHZZVIPzzx4o5aIvZtLoBmmrHnzjGyLFD0S3PN2BLYiOwcAJXLvaYzeCHjBUBtEoqU/mqmryuiiYkqupaO/qzpHEE3uw6a91j+7qi5j25rv2tUha9tilAqPl5PMJ3BS+TqbtMZvJDxAuCMaaNP9WusUkSD6wQa8AAAIABJREFU5VhSMPZD3vean1HEvu0LABuFdo/1YG1SjvESh0b5brnpDJ7Kk1UA/bug7PAmBojB57y5HLIBTT+kQVeQ5d+HEcVx6lknjf2uX+2JcOLOWKQPk+KdcSkA+oM5ml0lwkM2Cke1j5Iz6fuh8KptjXoP3elroxbfuOemctmzQfSJGNWmM3hqmLvLdAQvZLwAeOqVbddR3H0s09cV0aZ7LTmNrp92jt52PTE3+dpoXP+s8/ayKl/bFOER05HuAXAVdZrO4IWMFwCz66B35O6Yy734nfEDHOQVmhfl4FS5wfTP+IVIucQLff0dxVBoa362Z8mIMp++TREStUkoKEwy/Rni5cvW+yLZs+3J5J7xC5FKl/acS/Bv2ZIIPyulvmk6Q1gULN7+PFLqx362yYoqoOJPylbB4r1mnDpqHGuK9ByeHcW7W01n8IJns3uLF7a3Q/eeRdrnrkoRXpaeLzeX/msZ1XyN30U2g47Pp1HPyu9JvCOew8ebzuAlUpwavxAyCXCgcq/eva03pj9HmptADHnJ65CvOBfmW6NkE6l+Gr8QKTcntYAUp/z8PXFaTcvtLpOeAAEA0LvtTxn/7PDy5WC76Z+xVzxf31t0xY4mR9FMsrjF67ZEBPSoxbLuvP8KLmt7jYEr/G6XEnxqfnrM77t+OHqk322LgFH4pOkInlJoNx3BK+RXQ133FB9juTnPgUlOCBSHluN+MXdRi6wkGYCeW8euRELP973hNJp6Y/pzRVfsaPK9bWFcbRLq7FPG7AFFeB8PF6/u/oP1qSPrmiM3DODbk1bBZW2vcS+dBZKeAHEYDl1rOkLY7H6ZLoEL/yfdxlARJ3pJtnPOTmd9aswJkb75A4CF40d82v1jFFcp+drVmnf12/Wute80KQLEIblqWs/ykmh3K2bYkXXNqV5Lf9HI3xZTqWXR0z33jrrS97aFUZSrp5nO4AsLx9sJ989RK3R9H2stuKztNSkCxOFQR84NpjOETdEVO5q4l84CG5ixTEggre7ouXvUL9qWFxX53r4ww8XnTEfwTVoVWhY93bN01BzTUTLFyGSrgsvaXnMcdYoUAaIvbGHGniVjpprOETZ5V79dj4Q711gArc7LaRv216g9KYkPq01CwcJ00zl8RUjAVmuiclS2sdnWhVdta+xlPglpNJnKIIKNcvT3TGcIo9xFLY/B0eaKgBgqLJt+u/e+I+6T3oDoOvvMkhORVoWmc5hAhPuiMORldLnV/pnDvZ82MnlJBJ9W50kvwODkLt7xMGLa6M6KnLIvztmTaIhSl6n4F3bsM0xnMCqt7gh7EWB8vXXu1bu37Ru+93Ow9Iums4jgUQo3mc4QVrmX7rjTdBEAplLYak3Pj0f9QYYFooX2WOeYzmBcWt0R5uEA3/YBOJw3lyMxqmfUGmglx8KK93Ed/lzB4u3Pm84RVj33jroSaXWH6RwAQC7WOsw3h+332ba8qCi+O+8blOucgZQqQ0Jv4x776d4Re/6reGF7ZDeK6UvPkhFliMW3ms4RGCHduyQwBQCwf1LJOaeX3qrT6mrTWUSAEL+Y+/UdnzYdI8x6lo6aA0sth8XBWLNN/CJsvvWJX7c8PrsO2nScvrx74893roVLHx7vZrQ4jjql8KptjQbiGbPnzjEXk8X3mc4RGC6l2MEpeVe/XW86ykAEqgB4h7y5xIfEdCgr7CDZc1P5LCpwfxGYIgAA9lETa/UAqdRPc6/evc10nHe03zWqIpHDV2hNFx/0xv8eZPHGXc/Fjo3iTnF92bus9FlOqxmmcwQKowW96Y8F6X18OIEsAACga+noz1rD+JeH++MT2YEs3rg9Z8exUT2Vyy97loyZSnF+EoTAbclNMb1Wp6w6cnqfMvEh2nI38vN7R51NpBZyjAd0c2OXLsm78u37vcoWJF0/HD3SGo6dpnMEEvGLr7+64zNTl8ExHaU/AlsAAEDn7WVVsYT7JLs00XQWEQAWfzP30h13mo4Rdj1LRpRBxZ9ELMDHuBK/yDH+je5Wv90b315fejm6vWim/a5RFTFWnydLnwVXzRp87wg/lnv5ji9mNl0w9dw76kq4FIg5JUFEcff+YZfsvMR0jv4IdAEA7B+Dy+nJWQ4imRyY7RR3osc5OkxdbEH15nIkRjtH3MVpK/AzmMniFCnewOB6dtXfdW56g9MRa2zL37F9ID1CPUtGlLkUq7KG8RQQPkWMqawz83BBtl47bFHLzExcK+h6fjzqDwBlxxbAg7WP5+Yu3vGw6RiHE/gCANg/OfCsGaXXU1r9X9NZhGEWP5z7tR3mNrmJmD13jrlY5ei72KXgzAsYCI0WlaO36TT1UK/q5mG6FQDgIEFplctxnU8KpSCUe/k9Uiw8T31D0Xl7WZUd1w2mcwSe4s7eNI4L+imZoSgA3tGzrPQ8aHoQWuYFZDN3H2RZYAZ13VN8jE3xX2TqaTgbZct7MrWs9DbtyCqt/uEXn/jtjlOCvMrF+EZAA5G7qOWx3jSOA1g2DcpisXy9tH4RbNM5oqLgsrbXtufsOFbZeonpLKFk8cPZcPOvXwRb96r5pnOEB007+5yRgS6WQlUAAPu3D3791R2fkQ+r7KXT6vijq8b+H9M5omT8QqQSi1qucffhc6R4o+k8oWHxw6//ZccC0zH8MPnoURdCBW/1SJBRj3Vj5+1lVaZz9CVUQwAf1L2iZIbqjK+ELW/KbEPEqfRe67hs24DFD28uR6LUKb1Oafo2c0jnBniMiFN6n7oiW5b+AQcm/ymZ/DdgOrhDAaHrAXiv/JrWtW4nPgqXZYOYLMNMCTvuLq9Nhvs9HETjFyKVd0nL/2/v3qOrKs/8gT/Pu/e5JSf8kgDB8qOO4lwU8dZWxBYQL1C1VvAS0bbUiVYsy+HndKzLXsa6HDq1s6yXkVIqjKSDbZUIFqrSqQoi2kodO2WUsa3SYFtM4QDJaXKu++z9PvMH4o/aJCSQc959+X7WcvlHVznfJcl5n/287/vsO8oOnYTfrX5o+WmlaJ0WpcW/b1nTZCz+R0jxhz82/X3XmY7Rn0B3AA5VfHj0pyVvLyHCAcFowWyAauu775iZsbS+T3vKv3MDakJ6iej2Jzfu+aYfn+aqqbhi7Arx/H9l1LdcyuR49wnVmmdxpEJTABAdGOqRSMiDojGiMiqYpVR26CS/X7cJg8LylrmK6Y5IFgIsj1LevSWKMyhy6+tbrN3p32I76Ogope9NLsjcYjrHoUJVABz0bjeACd2AKPDIt3tsYVRY3jKXXL6VLAp/S9ijn1KqcktdW/dW01FMya9ouZM1YwbLUWIi351bCmUBQPTOuNN6+x4iutp0Fqg+UfJP9Tdk7jCdI0oK7c1TyYndzERzhShcT4ce/VSnK3emP939tOkoJvW0NzYmyonf4mFqxPhqkFloC4CDcquaZ1uF2FJhwpCTEGOiks6rwL2OMwz6vnbMGKtZPqEsadOaA7s9wEQlIVpH8cq/RvmJ/1B4+h95nnZOaVjYs910DqIIFABE77nWFLYnFXgXC+3o8/ac4beDNlHSt6xpcsyKtYnmS4NSdLPQDqn3HqS98v0o7vEPJLOU0mlr3Nt4+h9hLvnmxVGRKAAOyi4Zd1w8TncRtgXCzFcttijrW9Y02UpbF3JRzSLhGX4qvlloByv5oZezHkHXqH94+q8eyasz/fBzF6kC4KBCe/NU5drLNAW3XQkDk6KKzLvZg2JnOyXHWs0zuGx/RAlNFc1Tyarhk6VHveTRJrLoOU+cTX5pwfrVO9s6v6np31GUaH88qESyADiocN+4qzlFi8UKRqsShoY1lbym8tnpq7LbTGeBgWWXjDsunpDTKaX/kkv8N1JRkzipjxNPjT/iP9SjXmVJp9b8K1HyBgv9winzNlwTHZ7S8pZ7NLOv59gHnVOi403/XEa6ACA68IKLyR8ec51ovuOovnjAV9ijHaVE+cymtmzWdBYYno5WUhedcUwzNZWPsZKc1haNUiW7jvKc5DFunIhI9tkO1UtJJ92C8qjX/WOyuxTr6sL5j6OXXTLuuEScfinKP1s2YaREjM8FiHwBcNDOdkqOK49bwHF9GwqBcGCRp594JnMR5gMADF1h6bgfUJzmms4Reh715rw9/9dk0YoC4D0OLQRIMwqBgNNCmA8AMER99x0z027Qz5nOERVs6xuTf7tvuanPx4tU3uP4NirVfXbPA/+zde9fUMK7llzGq1EDTDF9pbC8BU8zAIfxygKy7ZSsMJ0jUipqocmPRwfgMDpaSV0yq+VSJlpIivCOgSDyGIcCAQ6j8PCYz3NZ3W06R9ToXsvYlUAUAMPQt6xpsm3bN5NWnyJLcEAmSJR0SVafiUEvAH/u4ME/fK/VHmsydhgQWwDD0LCwZ3vqhr03lOLl97Gtb2QhPFEGhebxqsF6KrOU0qajAPhNIiEPYvE3Q2y5uqPVzFqMDsBRyt/7vg+pBvdGjtNV4jGGZvidS7gZAHCI0nfGLBCtHjSdI8o82/2oiRdPoQAYITvbKTmu0nKhqpP5klcXUwzVtG958m+pG/beYDoGgGmFe0ePV6PVL/HwYpih7yQUAFWQWUrphlGjL2dWc8ijC/DL5T/smtt3A/CL4vKWH5ONw83mSdcTP9r7/lp3JlEAVFlmKaXTsZYLmOVjZNHFRJgt4BcS07fWzd/3DdM5AEwofHvc/+O4/KvpHHCAsHt2rV9DjQKgxvqWNU22OH6eSutz0B0wTxy+ue6zex4wnQOglvqWNU2O1dk/wfePf2iv9kPLUAAY1NFK6pKLm6eQraYp5rPFoanoENQeK7PTuABqKbOU0g3WuF9QXPASNB9hj7Ylb8icUdPPrOWHweEV7h09ntLWFGE6w0rJZMmpU7lOHycu26azhVrMuzY1f/8q0zEAqq24YuwKsvgzpnPAn3N3q7ENX9q9r1afhwIgADpaSc2eMe7YxJjyceRax1LR+iQO7ow8dAIg7HDlz9/EpcvqFmTW1erzUAAE0LtXd4SwfzfCmARFAIRSob15qrKsF0QTuok+xQ7X9HYSJgEGUN0/7O/yHL7fdI4wEuIHCw+P+bzpHAAjqXDv6PEs1los/j7HdF4tPw4FQEBl7MxdbEmn6RxhxB7fnV/RcqfpHAAjYWc7JVWD9RQpwgFjv0vI5J3tVLMhcigAAur4NirposIgmypRMflKccXYFaZmdAOMhI5WUu+Ljf2exOR001ng8ESTPY6aa/Z3hS+3AKtbkFlHDtd8fnRkxOgzl84Z+1gtK3KAkXTprJa7xaXLTeeAYSjHptTqo7AfFHDlMt+YTMqbgr/LqhBNl49PjX6u72uxj9fyeg7A0So8PObzIvIPpnPA8KjGymk1+6xafRBUR+OiPW95Zf6a6Rxhph01NfZ+92d9y5omm84CMBTFh0d/moXvNp0Dho+JJ9Xqs1AAhEDGztzFjAOB1STCE2N19k9yq5oxfwF8rbC8ZS6Lesh0DjgyUlYoAGDojm+jktju9aZzhJ0wjbLJegrXBMGvcquaZ6ukPIYtwWBioV6XvdaafV6tPgiqr/Ro80PiWNeZzhEFHPdW/qHYfdPxbVQynQWA6MDib5P1FBb/YGKWzkrOm9OwsGd7rT4THYAQKRb1LeRSl+kcUSCOdd341OjnskvGHWc6C0BhectcLP7BxXHv6aLrfrCWiz8RCoBQaWrLZlW9t8h0jqjQjpqaHKX/u7C8Za7pLBBd5dXNl6PtH0xM5Ooy/9MP13Zf1NSWzRr4fAib0nfHrhWNu7+1xCW+d/srmds+tJxc01kgOkrfGbOAFC/F4h9ALnVRqvLJ1DXZzaYioAAIodz6+ha7nHhNKqrFdJYoUZZsLe9OXDvq77veMJ0Fwi+/ouVOVae/YjoHDB9bemWxqG8x8dT/JzlMfjhUT3l18+XaVWtN54gadrlXlF6Umr9/leksEE4draQuvaJ5hXgKB36Dpsxd4vJNtXzl72BQAIRY6btj1woLtgIMYOHH3YbCwvScfMZ0FgiPnvbGxlRKrRZPYR5FwLDtfbN3X88XW26inOksB6EACLGe9sbGVL36NbYCzOCYzrDQwsS87sdNZ4HgK21MTKSuhmdE0UTTWWDo2NJPu0rflr4qu810lvdCARByuVXNsy1L/dh0jihDNwCOVm5V82xbrMfEllGms8DQsKZOXVS3+KXd3x8UABFQWt20hDzr70zniLQKzgbA8HW0kprzicYvSdFebDoLDJFHneTRv2z/6b6Vfr8VhAIgAna2U3J8Q/N/iqPwMhvTlH7a2Z1chJsCcDi59fUtdjHxMGns9wdCgBb+g1AARETfsqbJ8dH8M3FVnekskeeyKyn3G7tzPXdilDD0p/hI40y21GpycX7H71jJVmK5e/2a7nVXPUbadJ7hQAEQIaXvjFlAcXrQdA54h0edHNe34pAgHPTKArJPntW0mBzrC4xvZ99iWxdE06O6SCvq2rq3ms5zpPAjFjGl745dSwpXA/2ElWytKG+hH08JQ+30LWuaHB/Lj2Crzr9YyVax9b8X++RR00N8RgIKgIjpaW9sTNn2zykuuErkM2zr7xe74l9uXLTnLdNZoHZeWUD2KRc1foEq6osijC06P/GYWMlWr8Jrnay1Jmy/mygAIijX0Xh6jNRP8GXjP8xSEJGVbtJZjGuD4Vdob55qNdAK8RhP/X7hcCfF9GZmeqpQ0JvC8KQ/EBQAEVX6zpgFlBKcB/ApZilolgfcNxP3NHxp9z7TeWBk9bQ3NqbqeDGRwvVckw4s9jvEkv9Smv+zkiy/GKXCGwVAhJUebX6ImDFP3McOFgJe3LkvSl9MYdXRSurSj435DNXpxSSME/4jgFkKoulFIiIm/pNBSULSS66VI9vLiiUZKVn7rbjurLDuLOzN7vDTWF4TUABE2M52So5PjX5OmKaazgKDO7g1UMrE7wnbPmRU5FY1z47V0T1o948sjnu3Jy7LftV0jiBCARBxhQ2pCSqX+jmeRgKkoh7XFe/uIF8/ipJcR+Pptlb/QswY6DPSHO78g7vvZMzTODIoAICKjzTOVJZ6CocCg4WFtuoKLdvt7u/AF6D/lNelJ0kutZhiGtduq0S0d27qmuxm0zmCCgUAEBFRaU3TZ8lTy0zngCPAkhGWlZW3U+0YMWxerqPxdNuJ3Y6Fv8pEViav7r7edIwgQwEA7yqtblqCU8nBdrAr0Ne7//GoH3Cqtdyq5tl2nG5Bq78G4rqzt6vnNPyMHx0UAPCujlZSl17R/CN8gQXfOyejH3UdWr3hie5ngzajPCgySyk9alzTp5j4Jhzuqx20/kcGCgD4Ez3tjY11DeoFEXyZhYZIhkQ6RMvaJx7PbkExcPQK7c1TVYpuYEVXC+PsTE1p/c3kvJ5FpmOEAQoA+DPv3gxg3AwIHZEMaXrSdWj1Xq97Cw4PDl1hQ2oC7a+/2krpa1Egm8Es27v6us/Ez+3IQAEA/Xp3XDCebkKLRQriWP9BSfcZaio8nTy/3Gk6k9/k1te32JX45eTyZWRha8wkFilUSH8EL80aOSgAYEC5Vc2zY2l5SoRt01mgBpR0Upk3S4Wfl9GFTXUXF3eZjmRCeV16kteXvNiKyRVi0VRSYjoSEJEuqFvr5u/7hukcYYICAAZVXt18uSheiy/BCFLSyZq2itALrpatGx7LvhrG8wOFDakJvL/uPI7JOZSQmaQZb8r0mwo9nby6+6OmY4QNCgA4rNKaps8SM2YERBx7VCDNrwrrV8ii/9F9vK1M+ldBelvaKwvIPvGCxsm24qnMNF0UTcWC73MeZdxE+RS8C2PkoQCAISn/oPEfRavFpnOAz2g+eLBwG7G8oR3rt1Zcd1LC+VWhx+4yVRzsbKfk+Kb0RCrHT6S4nkSaTyLhU0nJidjSCg5mcXVZZuHKX3WgAIAhK61uWkI2Y1AQDBl7VCBFneJSF8dkn7jUzXHZIx7vY48zlTLllEe9VpPTKw2Vki4rR1eU09+fpWI6bjnWKK8nPkpbNCqWoLRY0sKWjBGHx7FNzVRRE0XJRLalGQt98GHfv7pQAMCwlNc2fU+IP2E6BwCEXNF6PPmpvVeYjhFmynQACBat6XemMwBAyCnpLFYqmPNfZWiRwbAo5ktwHwAAqoU9KpBV+XhTWy4wh0uDCh0AGLLyuvQkYcIENACoHqH5ibm5103HiAJ0AGDoxL4c8wAAoFqY5PbEvOzjpnNEBToAMHSemmc6AgCEE2v6fuKy7FdN54gSdABgSHLr61tEC9r/ADDiuKy2dhX349BfjaEDAENi9SYvNJ0BAEKps5IqzcEb/moPHQAYElWnP4qpEQAwksThDI3Oz0qfX8aYXwPQAYAhEY8vMJ0BAEJEk6vzNAevoTYHHQA4rPK69CQiaTGdAwBCQpNLFZ5X19a91XSUKEMHAA5L3NgM0xkAIBxEiHReXZ+Y143rfoahAIDDYqbppjMAQEh4tDA1f/8q0zEAWwAwBKJoKlsYAAQAR8ml25NXZr9tOgYcgHPdMKjc+vqWmIrtMZ0DAIJNl/jrqdaeL5rOAf8ftgBgUHajTDWdAQCCDYu/P6EAgEFxd/xU0xkAILiw+PsXCgAYXEKfZToCAAQTFn9/QwEAg5KyNcl0BgAIIJdux+Lvb7gFAAPa2U5JtmWi6RwAECycrtwcPzf/gOkcMDh0AGBAY+sbTzSdAQCCRWeta7H4BwM6ADCgmKiJRNp0DAAIggq7VOF5qfn7MeEvINABgIHFNfb/AeCwVJ23S5dlFsb7Bgs6ADAgKavjOY4OAAAMTBzu1H3y8dQ12ddNZ4HhQQcABsSjXLwBEAAGVlTbXeWcnZibw+IfQCgAYGAF+zjTEQDAp1g/+cc93Wen5+QzpqPAkcEWAAxINVUadckyHQMA/Mah2xOX9X7VdAw4OigAoF872ympS9YE0zkAwD84ISXZb30Sh/3CAQUA9GvcuNQYwhuAAeAd4nBnJU9XpOd1bzOdBUYGzgBAvyzHGmU6AwD4BOsni1n5YPqqLBb/EEEHAPqli3aLSqIFABBpHmO/P8TQAYB+8XgHHQCACFMxvUv30rmJy7JY/EMKBQD0i5XETWcAAEO0PFnO6Q+mrsluNh0FqgdbANAvJlWHDQCAaGGbSjqrPpe8sufbprNA9aEAgP5pSZqOAAC1o2J6l+6Tjyav/COm+kUEtgCgf5pRAABEiC7zNoz0jRYUAAAAQFynUfRHDAoAAACACEIBAAAAJAVVMp0BaguHAKF/Skps4R4AQFRwvYsCIGLQAQAAABLmXtMZoLZQAED/FONpACBCRFPGdAaoLRQA0C+tJWs6AwDUDnv0B9MZoLZQAEC/hDlnOgMA1I7Yust0BqgtFADQL4s0CgCACGGh35nOALWFAgD6pSt6n+kMAFA7To96y3QGqC0UANCv4u9S3aYzAECNMJfSc/I4BBgxKACgX01t2SwxbgIARELM22Y6AtQeBgHBgJj1PmGeYDoHAFSZJXgJUAShAwADElt2mc4AADXgyc9MR4DaQwEAA2KlUQAARAELtgAiCAUADEgL7zCdAQCqTLj09m+Kr5qOAbWHMwAwIBbZSQovBAIINaW3Hd9GOPAbQegAwIA8RgcAIOyEZbPpDGAGCgAYkOT0G6YzhF5MrxRLf13Z0mk6CkSTJnrGdAYwAwUADOjJ9mIXeQqtwWrwVImUd2N8Wv76xIz8F+3puROcvdYZYumvc0xvNx0PooFtcfpey79sOgeYwaYDgL85z6dfIs1TTecIE47p7Xofz0vMzQ1497q0MTFRKfsSYv44udY0snSylhkhIliejc/MzTIdA8xABwAGhwEhIyum79/1Zv7MwRZ/IqLk+eXO+Ln5B+Izc7Oyv/7jWK28ORTT92OrAEaUyBOmI4A56ADAoJzn6xaQth40nSPolC2dWrxr4jOKR91uLW1MTFS2dQFZfBaX1WxRhGmNcES0dk5Inl9GURlRKABgUM6W1BTybEwJO0Jsi6NF7u36Tf7Oal21Km1MTFRxexoxnaOEZ2qXJ1bjcyBcOKa3x6blTzGdA8zBHAAYVPa14uuNkxpMxwgmJVvLf7AXpq/KVnXK2oEnuHInEa0iIsqtr2+xG2WqFafJUlbnskVTxOVR1cwAwaM1PWk6A5iFDgAcVuXF+tfEU5NN5wgKjnm7pUJ3rPtm4d+ueoy06TxERIUNqQmqnj9gxWkyuXQGk/qA1ugURJn0yMmHO4sC4YYCAA7LebH+IfLUdaZz+B0rcYTlW/k3Y3c2tWWzpvMcTmYppRtPSU0iVieK0EmK5S+J+UQS/mvRHDedD6pJtsbPyZ1tOgWYhS0AODyh54kFBcBAhImVt8ZzvNuCdKCq5SbKERVfJqI/OZjY0UrqkrbUeE6rv7aYJojQSayohVw+lm05hoSPFSFsKQSZJ4+YjgDmoQMAh1XYkJpgp63fm87hS5qeJeV9eSRO9wdJZimlR52YaFExNUYLH6OIjuE4jRGPxxLRKBYZJZ5qJKY0W5KmsmqklGeTp+qIKClCQ+owMJNDRCVyuJeISGKCGw9HiZmccre8Pz0nnzGdBcxCAQBDUtnY8Ht8+R5C07OekrtSM/KbTEcJoo5WUhObSB17GiVjdY1/1omsFLLu5s1UOPQMRUcrqbk3pX9Mii6obdpwYdZrYtMLraZzgHkoAGBInBfrHyLN2AaI6BO/X+TW17ckxsp/i6uOMZ0lqDyS81G4AhEmAcIQiegfmc5gCjM5zHoNkXdWfGZuFhZ/c9Jz8hnX5U+azhFUrGQ7Fn84CAUADElhR+LZd/ZjI4OZeoXk65U+74TY9EIrFn5/SM3Ib+KY/rLpHEEkFVphOgP4B7YAYMic59MvEVPoXwzESraLJ0uy2wvfP3BSHvyo8kLdYyLqStM5goKZenM77L8IwhVVqA1cA4Qh47h+gjwVzgJAqFdY1pDWD8am4Uk/CHpeLbQ1fbDuWHLVFNNZgkBr+RbWK4OcAAAEa0lEQVQWfzgUOgAwZKWNiYlWIvYb0zlGkrj0LFnycPbV/ON42g+e3Pr6lmQzvyRMmGo4GCGn0uedUHdxcZfpKOAfKABgWCov1r9GzMEdCyxE4tFW0vKI00uP4i508JXXpSep0fQSKQwnGoiIrIxPy19vOgf4CwoAGJbKS3VfIq3+2XSOYdHkUEJvliKtdbK8Dot++DhbUlOYrWdQBPRD4+kf+ocCAIalsCE1IfZ//D8VkDV1apbN2pP1vdsLm9DeDz8UAf0Tkfvj0/KfM50D/AcFAAybszn9DMf8NY3t4IJPnvxMu96zQZrJDyMHRcB7aOotd8tfoesF/cEtABg+Sx42Oo7V5V7R9DpZslVE/8Tro61obwIRUXxG8WVnS2oWM68n5shPC9QefQuLPwwEHQAYtsxSSjedmn6bbKnuU5bLDrG8QSK/0sI7iPXPxdH/9cNvl986dEY8wHuV16UnqRa9MdJFgMjunl8U/grbXzAQFABwRJwX6+9ji/7+iP8AzUSaeonldxSXLnF4l2jKsMhOj3kHV9y3sNDD0ShsSE2IjVI/IouCe2vlKIgjN8bPKSw3nQP8CwUAHJHc+vqWeDNdSEREWpKkOfnu/6ikdODfXBLSBdHsCHPOIp3TFb3Pzdm5Dd/N78PiDtXW097YmD7ZWU0ezzadpaZYXv7BPYWz8TsGg0EBAACh1tFKas6i+n9WMfqC6Sy1IhV9Ft5dAYeDAgAAIqH8QupKleR2cjltOks1iUcY+gNDgrcBAkAkJKYX13i93mnk0XbTWapGZHf+zdgtpmNAMKAAAIDISJ5f7tz1Zv5M8eh+01mqQXuyCC/8gaHCFgAARFJxS/15ti3fC81VQVfWxKYXWk3HgOBABwAAIik1I78p9+v4SeLRSlJEgf5HZHe5m28a+f9KEGboAABA5BW31J8XY14hcQnka4W9ksxJnlP4oekcECzoAABA5KVm5Df9fkfuZNLyZVISqMl5UqGVWPzhSKADAABwiMKG1AR7lLqTY3QdsZiOMziHt+96M3/m8W1UMh0FggcFAABAP5wtqSmc5MVE5M8pgkw5/bY6KzE397rpKBBMKAAAAAZR3FJ/nh2Xu0jRFNNZDiVlvjY+Pb/KdA4ILhQAAABDUNxSf56dlNvIBx0BcRjT/uCooQAAABgGZ0tqCjPfSnG+0sgZAU0v7/pl4Rzs+8PRQgEAAHAEChtSE6y0uknZ8rdkU22GCbm0u7yXT0vPyWdq8nkQaigAAACOwisLyD5lfmquSvANpKq4PSCUk6Kcj7f8wUhBAQAAMEJy6+tbEi3yGWKaQ/bIHhr08oRhPzCiUAAAAFRBaWNiolVnXT0SxYD08c3xc/MPjFQ2ACIUAAAAVVfYkJpg1/PFrGgWJelCYkoP9f8rJb4/Pi3/uWrmg2hCAQAAUEMdraTmLkp9iGN8AVl0DjF9eKCCQEq47gfVgwIAAMCw0sbERI6rDzCrj3BcJpFLp5JNr/7g7sJFVz1G2nQ+CKf/BcYmLDE+aey8AAAAAElFTkSuQmCC;movable=1;resizable=1;rotatable=1;deletable=1;editable=1;locked=0;connectable=1;" parent="1" vertex="1">
          <mxGeometry x="409.1100000000001" y="760" width="62" height="62" as="geometry" />
        </mxCell>
        <mxCell id="bWXr1bDZ2tMtOz2vUo79-3" style="edgeStyle=orthogonalEdgeStyle;rounded=1;orthogonalLoop=1;jettySize=auto;html=1;exitX=1;exitY=0.5;exitDx=0;exitDy=0;entryX=0;entryY=0.5;entryDx=0;entryDy=0;entryPerimeter=0;curved=0;" parent="1" source="nfG761EomCiYScNcZpE6-85" target="nfG761EomCiYScNcZpE6-77" edge="1">
          <mxGeometry relative="1" as="geometry" />
        </mxCell>
        <mxCell id="bWXr1bDZ2tMtOz2vUo79-4" style="edgeStyle=orthogonalEdgeStyle;rounded=1;orthogonalLoop=1;jettySize=auto;html=1;exitX=0.5;exitY=1;exitDx=0;exitDy=0;entryX=0.5;entryY=1;entryDx=0;entryDy=0;entryPerimeter=0;curved=0;strokeWidth=0.5;" parent="1" source="nfG761EomCiYScNcZpE6-85" target="nfG761EomCiYScNcZpE6-74" edge="1">
          <mxGeometry relative="1" as="geometry">
            <Array as="points">
              <mxPoint x="440" y="1116" />
              <mxPoint x="587" y="1116" />
            </Array>
          </mxGeometry>
        </mxCell>
        <mxCell id="bWXr1bDZ2tMtOz2vUo79-5" style="edgeStyle=orthogonalEdgeStyle;rounded=1;orthogonalLoop=1;jettySize=auto;html=1;exitX=0.5;exitY=1;exitDx=0;exitDy=0;entryX=0.5;entryY=1;entryDx=0;entryDy=0;entryPerimeter=0;curved=0;strokeWidth=0.5;" parent="1" source="nfG761EomCiYScNcZpE6-85" target="nfG761EomCiYScNcZpE6-75" edge="1">
          <mxGeometry relative="1" as="geometry">
            <Array as="points">
              <mxPoint x="440" y="1116" />
              <mxPoint x="696" y="1116" />
            </Array>
          </mxGeometry>
        </mxCell>
        <mxCell id="bWXr1bDZ2tMtOz2vUo79-6" style="edgeStyle=orthogonalEdgeStyle;rounded=1;orthogonalLoop=1;jettySize=auto;html=1;exitX=0.5;exitY=1;exitDx=0;exitDy=0;entryX=0.5;entryY=1;entryDx=0;entryDy=0;entryPerimeter=0;curved=0;strokeWidth=0.5;" parent="1" source="nfG761EomCiYScNcZpE6-85" target="nfG761EomCiYScNcZpE6-79" edge="1">
          <mxGeometry relative="1" as="geometry">
            <Array as="points">
              <mxPoint x="440" y="1116" />
              <mxPoint x="802" y="1116" />
            </Array>
          </mxGeometry>
        </mxCell>
        <mxCell id="bWXr1bDZ2tMtOz2vUo79-8" style="edgeStyle=orthogonalEdgeStyle;rounded=0;orthogonalLoop=1;jettySize=auto;html=1;entryX=0.5;entryY=0;entryDx=0;entryDy=0;" parent="1" source="bWXr1bDZ2tMtOz2vUo79-7" target="nfG761EomCiYScNcZpE6-83" edge="1">
          <mxGeometry relative="1" as="geometry" />
        </mxCell>
        <mxCell id="bWXr1bDZ2tMtOz2vUo79-7" value="Application&amp;nbsp;&lt;span style=&quot;background-color: transparent; color: light-dark(rgb(35, 47, 62), rgb(189, 199, 212));&quot;&gt;LB&lt;/span&gt;" style="sketch=0;outlineConnect=0;fontColor=#232F3E;gradientColor=none;fillColor=#8C4FFF;strokeColor=none;dashed=0;verticalLabelPosition=bottom;verticalAlign=top;align=center;html=1;fontSize=12;fontStyle=0;aspect=fixed;pointerEvents=1;shape=mxgraph.aws4.application_load_balancer;" parent="1" vertex="1">
          <mxGeometry x="410.11" y="552.5" width="60" height="60" as="geometry" />
        </mxCell>
        <mxCell id="bWXr1bDZ2tMtOz2vUo79-11" value="Bastion Server" style="sketch=0;outlineConnect=0;fontColor=#232F3E;gradientColor=none;fillColor=#ED7100;strokeColor=none;dashed=0;verticalLabelPosition=bottom;verticalAlign=top;align=center;html=1;fontSize=12;fontStyle=0;aspect=fixed;pointerEvents=1;shape=mxgraph.aws4.instance2;" parent="1" vertex="1">
          <mxGeometry x="896.5" y="555.75" width="53.5" height="53.5" as="geometry" />
        </mxCell>
        <mxCell id="bWXr1bDZ2tMtOz2vUo79-14" value="Test 데이터 준비" style="text;html=1;align=center;verticalAlign=middle;resizable=0;points=[];autosize=1;strokeColor=none;fillColor=none;" parent="1" vertex="1">
          <mxGeometry x="1030" y="755" width="100" height="30" as="geometry" />
        </mxCell>
        <mxCell id="bWXr1bDZ2tMtOz2vUo79-15" value="TestFixtureCreator" style="sketch=0;points=[[0,0,0],[0.25,0,0],[0.5,0,0],[0.75,0,0],[1,0,0],[0,1,0],[0.25,1,0],[0.5,1,0],[0.75,1,0],[1,1,0],[0,0.25,0],[0,0.5,0],[0,0.75,0],[1,0.25,0],[1,0.5,0],[1,0.75,0]];outlineConnect=0;fontColor=#232F3E;fillColor=#ED7100;strokeColor=#ffffff;dashed=0;verticalLabelPosition=bottom;verticalAlign=top;align=center;html=1;fontSize=12;fontStyle=0;aspect=fixed;shape=mxgraph.aws4.resourceIcon;resIcon=mxgraph.aws4.lambda;" parent="1" vertex="1">
          <mxGeometry x="1002.63" y="555.13" width="54.75" height="54.75" as="geometry" />
        </mxCell>
        <mxCell id="bWXr1bDZ2tMtOz2vUo79-16" style="edgeStyle=orthogonalEdgeStyle;rounded=0;orthogonalLoop=1;jettySize=auto;html=1;exitX=0.5;exitY=1;exitDx=0;exitDy=0;exitPerimeter=0;entryX=0.5;entryY=0;entryDx=0;entryDy=0;entryPerimeter=0;" parent="1" source="bWXr1bDZ2tMtOz2vUo79-15" target="nfG761EomCiYScNcZpE6-128" edge="1">
          <mxGeometry relative="1" as="geometry" />
        </mxCell>
        <mxCell id="-_vZho8b1GlPkuXcv8ZX-1" value="Prometheus EFS" style="sketch=0;points=[[0,0,0],[0.25,0,0],[0.5,0,0],[0.75,0,0],[1,0,0],[0,1,0],[0.25,1,0],[0.5,1,0],[0.75,1,0],[1,1,0],[0,0.25,0],[0,0.5,0],[0,0.75,0],[1,0.25,0],[1,0.5,0],[1,0.75,0]];outlineConnect=0;fontColor=#232F3E;fillColor=#7AA116;strokeColor=#ffffff;dashed=0;verticalLabelPosition=bottom;verticalAlign=top;align=center;html=1;fontSize=12;fontStyle=0;aspect=fixed;shape=mxgraph.aws4.resourceIcon;resIcon=mxgraph.aws4.elastic_file_system;" vertex="1" parent="1">
          <mxGeometry x="1210" y="813" width="50" height="50" as="geometry" />
        </mxCell>
        <mxCell id="-_vZho8b1GlPkuXcv8ZX-2" value="Grafana EFS" style="sketch=0;points=[[0,0,0],[0.25,0,0],[0.5,0,0],[0.75,0,0],[1,0,0],[0,1,0],[0.25,1,0],[0.5,1,0],[0.75,1,0],[1,1,0],[0,0.25,0],[0,0.5,0],[0,0.75,0],[1,0.25,0],[1,0.5,0],[1,0.75,0]];outlineConnect=0;fontColor=#232F3E;fillColor=#7AA116;strokeColor=#ffffff;dashed=0;verticalLabelPosition=bottom;verticalAlign=top;align=center;html=1;fontSize=12;fontStyle=0;aspect=fixed;shape=mxgraph.aws4.resourceIcon;resIcon=mxgraph.aws4.elastic_file_system;" vertex="1" parent="1">
          <mxGeometry x="1210" y="730" width="50" height="50" as="geometry" />
        </mxCell>
        <mxCell id="-_vZho8b1GlPkuXcv8ZX-13" style="edgeStyle=orthogonalEdgeStyle;rounded=1;orthogonalLoop=1;jettySize=auto;html=1;curved=0;" edge="1" parent="1" source="-_vZho8b1GlPkuXcv8ZX-5" target="-_vZho8b1GlPkuXcv8ZX-3">
          <mxGeometry relative="1" as="geometry">
            <Array as="points">
              <mxPoint x="611" y="150" />
              <mxPoint x="450" y="150" />
            </Array>
          </mxGeometry>
        </mxCell>
        <mxCell id="-_vZho8b1GlPkuXcv8ZX-5" value="IGW" style="sketch=0;outlineConnect=0;fontColor=#232F3E;gradientColor=none;fillColor=#8C4FFF;strokeColor=none;dashed=0;verticalLabelPosition=bottom;verticalAlign=top;align=center;html=1;fontSize=12;fontStyle=0;aspect=fixed;pointerEvents=1;shape=mxgraph.aws4.internet_gateway;" vertex="1" parent="1">
          <mxGeometry x="582" y="82" width="58" height="58" as="geometry" />
        </mxCell>
        <mxCell id="-_vZho8b1GlPkuXcv8ZX-6" value="" style="endArrow=classic;html=1;rounded=0;exitX=0;exitY=0.5;exitDx=0;exitDy=0;exitPerimeter=0;entryX=1;entryY=0;entryDx=0;entryDy=0;entryPerimeter=0;dashed=1;strokeWidth=0.5;" edge="1" parent="1" source="nfG761EomCiYScNcZpE6-130" target="nfG761EomCiYScNcZpE6-95">
          <mxGeometry width="50" height="50" relative="1" as="geometry">
            <mxPoint x="760" y="460" as="sourcePoint" />
            <mxPoint x="810" y="410" as="targetPoint" />
          </mxGeometry>
        </mxCell>
        <mxCell id="-_vZho8b1GlPkuXcv8ZX-9" value="" style="endArrow=classic;html=1;rounded=0;exitX=0;exitY=0.5;exitDx=0;exitDy=0;exitPerimeter=0;entryX=1;entryY=0;entryDx=0;entryDy=0;dashed=1;strokeWidth=0.5;" edge="1" parent="1" source="-_vZho8b1GlPkuXcv8ZX-2" target="nfG761EomCiYScNcZpE6-83">
          <mxGeometry width="50" height="50" relative="1" as="geometry">
            <mxPoint x="700" y="630" as="sourcePoint" />
            <mxPoint x="750" y="580" as="targetPoint" />
          </mxGeometry>
        </mxCell>
        <mxCell id="-_vZho8b1GlPkuXcv8ZX-10" value="" style="endArrow=classic;html=1;rounded=0;exitX=0;exitY=0.5;exitDx=0;exitDy=0;exitPerimeter=0;entryX=1;entryY=0;entryDx=0;entryDy=0;dashed=1;strokeWidth=0.5;" edge="1" parent="1" source="-_vZho8b1GlPkuXcv8ZX-1" target="nfG761EomCiYScNcZpE6-85">
          <mxGeometry width="50" height="50" relative="1" as="geometry">
            <mxPoint x="700" y="630" as="sourcePoint" />
            <mxPoint x="750" y="580" as="targetPoint" />
          </mxGeometry>
        </mxCell>
        <mxCell id="-_vZho8b1GlPkuXcv8ZX-11" value="CloudWatch&lt;div&gt;(Alt of File Log)&lt;/div&gt;" style="sketch=0;points=[[0,0,0],[0.25,0,0],[0.5,0,0],[0.75,0,0],[1,0,0],[0,1,0],[0.25,1,0],[0.5,1,0],[0.75,1,0],[1,1,0],[0,0.25,0],[0,0.5,0],[0,0.75,0],[1,0.25,0],[1,0.5,0],[1,0.75,0]];points=[[0,0,0],[0.25,0,0],[0.5,0,0],[0.75,0,0],[1,0,0],[0,1,0],[0.25,1,0],[0.5,1,0],[0.75,1,0],[1,1,0],[0,0.25,0],[0,0.5,0],[0,0.75,0],[1,0.25,0],[1,0.5,0],[1,0.75,0]];outlineConnect=0;fontColor=#232F3E;fillColor=#E7157B;strokeColor=#ffffff;dashed=0;verticalLabelPosition=bottom;verticalAlign=top;align=center;html=1;fontSize=12;fontStyle=0;aspect=fixed;shape=mxgraph.aws4.resourceIcon;resIcon=mxgraph.aws4.cloudwatch_2;" vertex="1" parent="1">
          <mxGeometry x="1208" y="942" width="54" height="54" as="geometry" />
        </mxCell>
        <mxCell id="-_vZho8b1GlPkuXcv8ZX-14" style="edgeStyle=orthogonalEdgeStyle;rounded=1;orthogonalLoop=1;jettySize=auto;html=1;exitX=0.5;exitY=1;exitDx=0;exitDy=0;exitPerimeter=0;curved=0;strokeWidth=0.5;" edge="1" parent="1" source="nfG761EomCiYScNcZpE6-96" target="nfG761EomCiYScNcZpE6-99">
          <mxGeometry relative="1" as="geometry">
            <Array as="points">
              <mxPoint x="836" y="400" />
              <mxPoint x="611" y="400" />
            </Array>
          </mxGeometry>
        </mxCell>
        <mxCell id="-_vZho8b1GlPkuXcv8ZX-15" style="edgeStyle=orthogonalEdgeStyle;rounded=1;orthogonalLoop=1;jettySize=auto;html=1;exitX=0.5;exitY=1;exitDx=0;exitDy=0;exitPerimeter=0;strokeWidth=0.5;curved=0;" edge="1" parent="1" source="nfG761EomCiYScNcZpE6-97" target="nfG761EomCiYScNcZpE6-99">
          <mxGeometry relative="1" as="geometry">
            <Array as="points">
              <mxPoint x="946" y="400" />
              <mxPoint x="611" y="400" />
            </Array>
          </mxGeometry>
        </mxCell>
        <mxCell id="-_vZho8b1GlPkuXcv8ZX-16" style="edgeStyle=orthogonalEdgeStyle;rounded=1;orthogonalLoop=1;jettySize=auto;html=1;exitX=0.5;exitY=1;exitDx=0;exitDy=0;exitPerimeter=0;strokeWidth=0.5;curved=0;" edge="1" parent="1" source="nfG761EomCiYScNcZpE6-98" target="nfG761EomCiYScNcZpE6-99">
          <mxGeometry relative="1" as="geometry">
            <Array as="points">
              <mxPoint x="1056" y="400" />
              <mxPoint x="611" y="400" />
            </Array>
          </mxGeometry>
        </mxCell>
        <mxCell id="-_vZho8b1GlPkuXcv8ZX-17" value="Stdout Logging" style="text;html=1;align=center;verticalAlign=middle;resizable=0;points=[];autosize=1;strokeColor=none;fillColor=none;" vertex="1" parent="1">
          <mxGeometry x="1010" y="942" width="100" height="30" as="geometry" />
        </mxCell>
        <mxCell id="-_vZho8b1GlPkuXcv8ZX-18" value="Chat Data" style="text;html=1;align=center;verticalAlign=middle;resizable=0;points=[];autosize=1;strokeColor=none;fillColor=none;" vertex="1" parent="1">
          <mxGeometry x="914" y="810" width="80" height="30" as="geometry" />
        </mxCell>
        <mxCell id="-_vZho8b1GlPkuXcv8ZX-26" style="edgeStyle=orthogonalEdgeStyle;rounded=0;orthogonalLoop=1;jettySize=auto;html=1;" edge="1" parent="1" source="-_vZho8b1GlPkuXcv8ZX-20" target="nfG761EomCiYScNcZpE6-71">
          <mxGeometry relative="1" as="geometry" />
        </mxCell>
        <mxCell id="-_vZho8b1GlPkuXcv8ZX-20" value="Service Discovery&lt;div&gt;Http Namespace&lt;/div&gt;" style="sketch=0;outlineConnect=0;fontColor=#232F3E;gradientColor=none;fillColor=#8C4FFF;strokeColor=none;dashed=0;verticalLabelPosition=bottom;verticalAlign=top;align=center;html=1;fontSize=12;fontStyle=0;aspect=fixed;pointerEvents=1;shape=mxgraph.aws4.namespace;" vertex="1" parent="1">
          <mxGeometry x="671.61" y="872" width="49" height="49" as="geometry" />
        </mxCell>
        <mxCell id="-_vZho8b1GlPkuXcv8ZX-27" style="edgeStyle=orthogonalEdgeStyle;rounded=1;orthogonalLoop=1;jettySize=auto;html=1;exitX=1;exitY=0.5;exitDx=0;exitDy=0;exitPerimeter=0;entryX=0;entryY=0.5;entryDx=0;entryDy=0;entryPerimeter=0;curved=0;" edge="1" parent="1" source="nfG761EomCiYScNcZpE6-77" target="-_vZho8b1GlPkuXcv8ZX-11">
          <mxGeometry relative="1" as="geometry">
            <Array as="points">
              <mxPoint x="910" y="791" />
              <mxPoint x="910" y="969" />
            </Array>
          </mxGeometry>
        </mxCell>
      </root>
    </mxGraphModel>
  </diagram>
</mxfile>
